<?xml version="1.0" encoding="UTF-8"?>
<svg version="1.1" xmlns="http://www.w3.org/2000/svg" width="72" height="77">
<path d="M0 0 C23.76 0 47.52 0 72 0 C72 25.41 72 50.82 72 77 C48.24 77 24.48 77 0 77 C0 51.59 0 26.18 0 0 Z " fill="#E9ECED" transform="translate(0,0)"/>
<path d="M0 0 C0.84575592 -0.00524185 1.69151184 -0.0104837 2.56289673 -0.0158844 C4.34986271 -0.02229944 6.13687095 -0.02097428 7.92382812 -0.01245117 C10.64790761 -0.00395663 13.36987843 -0.03268283 16.09375 -0.06445312 C17.83333271 -0.06606576 19.57291911 -0.06548641 21.3125 -0.0625 C22.52684219 -0.07935097 22.52684219 -0.07935097 23.76571655 -0.09654236 C29.06237554 -0.03179808 32.10235377 0.90486418 36.2890625 4.43359375 C37.70458984 6.12182617 37.70458984 6.12182617 38.625 7.7890625 C38.96748779 8.4073291 39.30997559 9.0255957 39.6628418 9.66259766 C39.99324463 10.30890137 40.32364746 10.95520508 40.6640625 11.62109375 C41.01057861 12.28802246 41.35709473 12.95495117 41.71411133 13.64208984 C44.27989145 18.84683192 45.32420572 22.59915014 44.2890625 28.43359375 C42.80455134 31.6853801 41.02419054 34.1404419 38.2890625 36.43359375 C35.22507591 37.12213006 32.36690646 37.02860752 29.2890625 36.43359375 C26.3515625 34.05859375 26.3515625 34.05859375 24.2890625 31.43359375 C23.6290625 30.77359375 22.9690625 30.11359375 22.2890625 29.43359375 C21.5053125 30.40296875 20.7215625 31.37234375 19.9140625 32.37109375 C17.87793241 34.88946518 16.62489422 36.24988408 13.30078125 36.70703125 C8.82867537 36.902451 6.95589695 36.9727365 3.3515625 34.05859375 C2.330625 32.75921875 2.330625 32.75921875 1.2890625 31.43359375 C0.6290625 30.77359375 -0.0309375 30.11359375 -0.7109375 29.43359375 C-1.1440625 30.21734375 -1.5771875 31.00109375 -2.0234375 31.80859375 C-3.7109375 34.43359375 -3.7109375 34.43359375 -6.7109375 36.43359375 C-9.77671807 36.97900415 -12.6438607 36.9716774 -15.7109375 36.43359375 C-18.99269068 33.90390901 -20.40337527 32.35628044 -21.7109375 28.43359375 C-22.57977193 21.51554253 -21.03446176 16.91738118 -17.4609375 11.05859375 C-17.06519531 10.36121094 -16.66945313 9.66382813 -16.26171875 8.9453125 C-11.96843315 1.61153611 -8.63072774 -0.03114109 0 0 Z " fill="#32E496" transform="translate(24.7109375,3.56640625)"/>
<path d="M0 0 C23.76 0 47.52 0 72 0 C72 25.41 72 50.82 72 77 C48.24 77 24.48 77 0 77 C0 51.59 0 26.18 0 0 Z M9.69799805 9.68823242 C8.67371346 11.51218012 7.6586744 13.33453157 6.6875 15.1875 C6.33647217 15.85515381 5.98544434 16.52280762 5.6237793 17.21069336 C3.01227588 22.44066759 1.97268461 26.11628459 3 32 C3.50080078 32.93191162 4.00160156 33.86382324 4.51757812 34.82397461 C6.18858526 38.40403584 6.38205143 40.82301299 6.40625 44.75390625 C6.42816406 46.02041016 6.45007813 47.28691406 6.47265625 48.59179688 C6.49091232 51.24283836 6.5091414 53.89388002 6.52734375 56.54492188 C6.54925781 57.81013672 6.57117188 59.07535156 6.59375 60.37890625 C6.60083984 61.5294751 6.60792969 62.68004395 6.61523438 63.86547852 C7.04032037 67.32847285 7.92932907 69.21856306 10 72 C12.4067004 73.2033502 13.9728951 73.15238024 16.66162109 73.19287109 C18.11355362 73.21696548 18.11355362 73.21696548 19.59481812 73.24154663 C24.01860906 73.28593022 28.44224959 73.3270497 32.86621094 73.35009766 C35.20192415 73.36667452 37.53758628 73.39398696 39.87304688 73.43212891 C43.23594548 73.48678314 46.59765511 73.50875342 49.9609375 73.5234375 C51.00583344 73.54610687 52.05072937 73.56877625 53.12728882 73.59213257 C58.83327531 73.64359455 58.83327531 73.64359455 63.65844727 70.91064453 C65.29180429 67.36689886 65.49807995 64.80733646 65.50390625 60.90625 C65.51332748 60.23710571 65.52274872 59.56796143 65.53245544 58.87854004 C65.5609912 56.7520448 65.56418822 54.62667071 65.5625 52.5 C65.56611733 50.37349368 65.57574551 48.24779806 65.60325623 46.12145996 C65.62765793 44.19243343 65.62997607 42.26316491 65.63110352 40.33398438 C66.03060552 36.72339577 67.0558076 35.003342 69 32 C70.35888248 25.32391513 68.2106697 20.25809906 64.8125 14.625 C64.42513672 13.92761719 64.03777344 13.23023438 63.63867188 12.51171875 C61.25641949 8.40873199 59.45535882 6.01288422 55 4 C52.04908369 3.56581995 49.1351708 3.55563101 46.15625 3.56640625 C45.30953735 3.5611644 44.46282471 3.55592255 43.5904541 3.55052185 C41.80526829 3.54411563 40.02004019 3.5454205 38.23486328 3.55395508 C35.50867424 3.5624729 32.78457642 3.53367347 30.05859375 3.50195312 C28.32031313 3.50034108 26.5820288 3.5009187 24.84375 3.50390625 C24.03216431 3.49267227 23.22057861 3.48143829 22.38439941 3.46986389 C16.51323594 3.54192668 13.40106048 4.88668044 9.69799805 9.68823242 Z " fill="#FDFEFD" transform="translate(0,0)"/>
<path d="M0 0 C1.77503906 0.03480469 1.77503906 0.03480469 3.5859375 0.0703125 C5.36871094 0.09738281 5.36871094 0.09738281 7.1875 0.125 C8.10273438 0.14820313 9.01796875 0.17140625 9.9609375 0.1953125 C10.16570129 5.00726164 9.6125451 8.99774494 8.4609375 13.66015625 C7.69493007 17.54405331 7.56430311 21.44871896 7.40234375 25.3984375 C6.88951495 28.64786598 5.89166652 30.5479772 3.9609375 33.1953125 C-0.04607944 35.86665713 -3.32782546 36.02184531 -8.0390625 35.1953125 C-11.32081568 32.66562776 -12.73150027 31.11799919 -14.0390625 27.1953125 C-14.93282399 20.21095693 -13.30775625 15.64248967 -9.6640625 9.7578125 C-9.2515625 9.05205078 -8.8390625 8.34628906 -8.4140625 7.61914062 C-4.05663411 0.26070913 -4.05663411 0.26070913 0 0 Z " fill="#06B465" transform="translate(17.0390625,4.8046875)"/>
<path d="M0 0 C2.06066104 -0.1357683 4.12392757 -0.23233903 6.1875 -0.3125 C7.33605469 -0.37050781 8.48460937 -0.42851563 9.66796875 -0.48828125 C14.04280107 0.15281376 15.25619025 1.59341189 18 5 C22.1315764 11.16939454 26.11963364 17.48836796 25.43359375 25.1328125 C24.47459691 29.26254663 22.20323282 32.3143856 19 35 C15.93557125 35.68863568 13.07834508 35.59406659 10 35 C5.79960158 31.67468458 4.1847507 29.50284603 3.53515625 24.21875 C3.37517242 22.64607881 3.2177591 21.07314466 3.0625 19.5 C2.37637463 12.89981505 1.46345146 6.48099934 0 0 Z " fill="#05B465" transform="translate(44,5)"/>
<path d="M0 0 C1.37376679 0.00398964 2.74753489 0.01873698 4.12109375 0.04296875 C4.81912109 0.04361328 5.51714844 0.04425781 6.23632812 0.04492188 C11.41828217 0.09015717 11.41828217 0.09015717 12.55859375 1.23046875 C12.64573206 2.93819233 12.66559382 4.64945524 12.65625 6.359375 C12.65302734 7.39384766 12.64980469 8.42832031 12.64648438 9.49414062 C12.63810547 10.58275391 12.62972656 11.67136719 12.62109375 12.79296875 C12.61658203 13.88544922 12.61207031 14.97792969 12.60742188 16.10351562 C12.59559215 18.81252307 12.57765606 21.52150255 12.55859375 24.23046875 C6.61859375 24.23046875 0.67859375 24.23046875 -5.44140625 24.23046875 C-5.4951571 20.60527286 -5.53495918 16.98086685 -5.56640625 13.35546875 C-5.58316406 12.32292969 -5.59992187 11.29039063 -5.6171875 10.2265625 C-5.62363281 9.24042969 -5.63007813 8.25429688 -5.63671875 7.23828125 C-5.64719238 6.3270752 -5.65766602 5.41586914 -5.66845703 4.47705078 C-5.26729066 0.50766049 -3.79672187 0.25426401 0 0 Z " fill="#D9D9D9" transform="translate(31.44140625,48.76953125)"/>
</svg>
