<?xml version="1.0" encoding="UTF-8"?>
<svg version="1.1" xmlns="http://www.w3.org/2000/svg" width="2560" height="744">
<path d="M0 0 C1.13612228 0.00273422 1.13612228 0.00273422 2.29519653 0.00552368 C48.53400632 0.19175769 94.01711528 15.73224082 129.8125 45.3125 C130.84117187 46.13878906 131.86984375 46.96507812 132.9296875 47.81640625 C146.82964774 59.12412525 159.22255576 71.86455507 169.8125 86.3125 C170.23724609 86.88178223 170.66199219 87.45106445 171.09960938 88.03759766 C193.11542039 117.57242432 207.93286459 151.81132097 215.0625 187.9375 C215.21380371 188.69901367 215.36510742 189.46052734 215.52099609 190.24511719 C218.8256361 208.26567385 219.12037209 226.24280328 219.11792648 244.50974238 C219.11959897 248.12447433 219.13270808 251.73916995 219.14411926 255.35388184 C219.16676518 263.21874518 219.17486476 271.08358121 219.17994571 278.94847274 C219.18322091 283.86622433 219.18975339 288.78396825 219.1969471 293.70171547 C219.21647138 307.34463208 219.23290492 320.98754165 219.23582363 334.63047314 C219.2360112 335.49967389 219.23619877 336.36887464 219.23639202 337.26441481 C219.23675824 339.02598083 219.23712194 340.78754685 219.23748314 342.54911288 C219.23766595 343.42340612 219.23784876 344.29769936 219.23803711 345.19848633 C219.23830793 346.51154069 219.23830793 346.51154069 219.23858423 347.8511214 C219.24213541 362.074168 219.26923514 376.29706415 219.306535 390.52005848 C219.3446105 405.15662729 219.36398096 419.79312128 219.36428314 434.42974073 C219.36486719 442.63463966 219.37332833 450.83935805 219.40228081 459.04421043 C219.4267823 466.01876797 219.4340846 472.99307878 219.41903328 479.96766772 C219.41186428 483.5233144 219.41272171 487.0784736 219.43544388 490.63406563 C219.45985397 494.49060958 219.44540127 498.34645792 219.42723083 502.20304871 C219.4404308 503.32239734 219.45363077 504.44174598 219.46723074 505.59501427 C219.39404502 512.38974789 218.35875375 517.10924622 213.8125 522.3125 C209.7118795 525.41296916 205.85801468 526.43093252 200.77874756 526.45294189 C199.58882454 526.46150711 199.58882454 526.46150711 198.37486267 526.47024536 C197.08280663 526.47192215 197.08280663 526.47192215 195.76464844 526.47363281 C194.85032547 526.47859772 193.9360025 526.48356262 192.99397278 526.48867798 C189.96993251 526.50327929 186.94594472 526.51009862 183.921875 526.515625 C181.81683349 526.52137859 179.71179198 526.5271363 177.60675049 526.53289795 C173.19176998 526.54340249 168.77680765 526.54924858 164.36181641 526.55273438 C158.71500118 526.55821465 153.0684276 526.58223516 147.42168808 526.61070633 C143.0721365 526.62936598 138.72264272 526.63454011 134.3730545 526.63607025 C132.29192027 526.63909033 130.2107869 526.64709699 128.12969208 526.66025543 C125.21225311 526.6773836 122.29539907 526.67541898 119.37792969 526.66894531 C118.09801903 526.68276749 118.09801903 526.68276749 116.79225159 526.6968689 C110.52018132 526.65345379 104.73285075 525.75074351 99.75390625 521.59375 C99.29886719 521.0059375 98.84382812 520.418125 98.375 519.8125 C97.90191406 519.2246875 97.42882812 518.636875 96.94140625 518.03125 C94.86697775 514.87295056 94.68607337 512.1440909 94.67942142 508.47742271 C94.67518038 507.47523213 94.67093933 506.47304154 94.66656977 505.44048154 C94.6669559 504.33633205 94.66734203 503.23218255 94.66773987 502.09457397 C94.6624496 500.33850104 94.6624496 500.33850104 94.65705246 498.54695189 C94.6482044 495.2914895 94.64380247 492.03605519 94.64120948 488.7805829 C94.63731768 485.2710667 94.62767961 481.76156602 94.61865234 478.25205994 C94.60370281 472.16580903 94.59216238 466.07955936 94.58270454 459.99329758 C94.56882426 451.17502599 94.5476331 442.35678301 94.52427601 433.53853197 C94.48633456 419.20766092 94.45138244 404.87678464 94.41967773 390.54589844 C94.41777724 389.68776655 94.41587675 388.82963466 94.41391867 387.94549878 C94.38714365 375.7942812 94.36325694 363.64305963 94.34053367 351.49183388 C94.33893637 350.63794667 94.33733906 349.78405946 94.33569336 348.90429688 C94.33409989 348.05145518 94.33250643 347.19861348 94.33086468 346.31992809 C94.30402402 332.0601037 94.26958963 317.8003094 94.22903961 303.54051745 C94.20435942 294.75515625 94.18597998 285.96982733 94.175884 277.18443705 C94.16844834 271.14973871 94.15385549 265.1150837 94.13381977 259.08041416 C94.12251649 255.60696373 94.11428854 252.13358286 94.11482811 248.66011238 C94.10982525 231.35542536 94.03597236 214.24802645 89.6875 197.375 C89.47649658 196.55 89.26549316 195.725 89.0480957 194.875 C84.11063089 176.63579267 75.07682991 160.79901299 61.8125 147.3125 C60.67361328 146.15427734 60.67361328 146.15427734 59.51171875 144.97265625 C52.99071845 138.72914533 45.78836233 134.38984666 37.8125 130.3125 C36.39710938 129.58546875 36.39710938 129.58546875 34.953125 128.84375 C11.39096184 117.9279456 -18.13525722 118.23021091 -42.25 127 C-54.9033157 131.90399056 -66.14153648 138.09120512 -76.1875 147.3125 C-77.57582031 148.57900391 -77.57582031 148.57900391 -78.9921875 149.87109375 C-97.05832678 167.11149536 -109.79860959 192.25112893 -110.43803978 217.57925701 C-110.44841019 219.43559614 -110.44823598 221.29201581 -110.4390564 223.14836121 C-110.44202654 224.18117055 -110.44499667 225.21397989 -110.44805682 226.27808648 C-110.45564074 229.7078285 -110.44922601 233.13739641 -110.44287109 236.56713867 C-110.44562353 239.03850927 -110.44930496 241.50987898 -110.45384216 243.98124695 C-110.46193175 249.28763904 -110.46429185 254.59398691 -110.46189499 259.90038109 C-110.45878603 267.58107863 -110.47047501 275.26170306 -110.48644479 282.94238213 C-110.51235604 295.41788037 -110.5324024 307.89337866 -110.54589844 320.36889648 C-110.54670881 321.11421241 -110.54751918 321.85952833 -110.5483541 322.62742958 C-110.55958523 333.21359556 -110.56485969 343.79975628 -110.56774123 354.38592742 C-110.56794522 355.13215291 -110.56814921 355.87837841 -110.56835938 356.6472168 C-110.56855931 357.3925265 -110.56875925 358.1378362 -110.56896524 358.90573104 C-110.57270003 371.34081428 -110.59179368 383.77581775 -110.62345374 396.21086103 C-110.64234312 403.87133926 -110.64834552 411.5316127 -110.63763656 419.19210777 C-110.63056252 425.06003661 -110.64410866 430.92780321 -110.66525459 436.79570198 C-110.67057971 439.19989373 -110.66907439 441.60411182 -110.66021919 444.00829315 C-110.64910086 447.29173513 -110.66252721 450.57420696 -110.68197632 453.85758972 C-110.67285166 454.80730264 -110.663727 455.75701557 -110.65432584 456.73550767 C-110.72288595 462.68899839 -111.69134927 467.38686469 -115.1875 472.3125 C-121.25993297 477.24635179 -126.28253505 477.46474731 -133.86816406 477.48950195 C-134.74347275 477.49607315 -135.61878143 477.50264435 -136.52061462 477.50941467 C-139.41478567 477.52911056 -142.30890491 477.54080204 -145.203125 477.55078125 C-146.19343468 477.55485678 -147.18374435 477.5589323 -148.20406342 477.56313133 C-153.44577322 477.58397627 -158.68745696 477.59828481 -163.92919922 477.60766602 C-169.33395791 477.61872699 -174.73830452 477.65312801 -180.14291763 477.69283772 C-184.30717722 477.71902227 -188.47133886 477.7273595 -192.63567352 477.73094749 C-194.62750786 477.73580868 -196.61933797 477.74740928 -198.61109161 477.76598549 C-201.40414312 477.79041593 -204.19613147 477.78940478 -206.98925781 477.7824707 C-208.21306404 477.80168579 -208.21306404 477.80168579 -209.46159363 477.82128906 C-215.13028337 477.77022913 -219.44975873 476.48536961 -224.1875 473.3125 C-229.17132887 467.94529968 -229.33526064 464.19901248 -229.33226013 457.08851624 C-229.33578698 456.12016057 -229.33931382 455.1518049 -229.34294754 454.15410513 C-229.35367728 450.88796965 -229.35732309 447.62186329 -229.36108398 444.35571289 C-229.36738654 442.02174251 -229.374152 439.68777334 -229.38134766 437.35380554 C-229.39604659 432.3141257 -229.40776013 427.2744506 -229.41729546 422.23475838 C-229.43143014 414.92747092 -229.45237201 407.62021442 -229.47572399 400.31295174 C-229.51367794 388.4307293 -229.548623 376.54850052 -229.58032227 364.66625977 C-229.58222276 363.95462712 -229.58412325 363.24299448 -229.58608133 362.50979721 C-229.61282531 352.44516712 -229.63671852 342.38053226 -229.65946633 332.31589245 C-229.66106363 331.60941406 -229.66266094 330.90293566 -229.66430664 330.17504883 C-229.66669684 329.11663258 -229.66669684 329.11663258 -229.66913532 328.03683419 C-229.69601757 316.22011449 -229.73047166 304.40343081 -229.77096039 292.58674997 C-229.79776898 284.66735965 -229.81558733 276.74800274 -229.82699764 268.82857525 C-229.83619319 263.87279074 -229.85358848 258.91705891 -229.87317657 253.96130562 C-229.88058399 251.6810744 -229.88472897 249.4008296 -229.88517189 247.1205864 C-229.85816927 222.12449179 -229.85816927 222.12449179 -234.375 197.625 C-234.69645996 196.46158081 -234.69645996 196.46158081 -235.02441406 195.2746582 C-242.65277148 168.84784857 -258.58199026 146.65474883 -282.81713867 133.109375 C-306.29224416 120.4599689 -335.4291532 117.13792382 -361.1875 124.3125 C-376.19816423 128.92164405 -389.44099552 135.77853792 -401.1875 146.3125 C-401.82171875 146.86421875 -402.4559375 147.4159375 -403.109375 147.984375 C-415.32492185 159.30336795 -423.11620922 175.67433298 -428.5 191.1875 C-428.73033936 191.83291748 -428.96067871 192.47833496 -429.19799805 193.14331055 C-434.73270762 210.08459955 -434.6267776 227.53217045 -434.57626271 245.15470684 C-434.56937673 248.73535267 -434.58004354 252.31595478 -434.58854675 255.89659119 C-434.60102957 262.08084275 -434.60311525 268.26502439 -434.59819031 274.44928551 C-434.591343 283.39797174 -434.60396702 292.34655376 -434.62169749 301.29522131 C-434.65025144 315.82888971 -434.66783592 330.36254678 -434.67626953 344.89624023 C-434.67677671 345.76346578 -434.67728389 346.63069132 -434.67780644 347.52419642 C-434.68184096 354.56551107 -434.68533725 361.60682596 -434.68880367 368.64814091 C-434.69186319 374.81970802 -434.69513498 380.99127497 -434.69873047 387.1628418 C-434.69948439 388.46707658 -434.69948439 388.46707658 -434.70025355 389.79765954 C-434.70899702 404.29521406 -434.72942475 418.79272951 -434.75821257 433.29025775 C-434.77537554 442.21870632 -434.78198509 451.1470443 -434.77490652 460.0755072 C-434.77072802 466.18474903 -434.77707421 472.29392097 -434.79170525 478.40314653 C-434.79976131 481.92613553 -434.80287716 485.4489512 -434.79288292 488.97193909 C-434.78213728 492.79154092 -434.79446624 496.61087183 -434.80895996 500.4304657 C-434.79861906 502.09737183 -434.79861906 502.09737183 -434.78806925 503.79795283 C-434.84347106 511.27781655 -435.58621213 516.311014 -440.625 522.125 C-444.16628887 525.14805147 -446.74821015 526.55997261 -451.42453003 526.57319641 C-452.26277313 526.58028122 -453.10101624 526.58736603 -453.96466064 526.59466553 C-454.87592712 526.59218811 -455.7871936 526.58971069 -456.72607422 526.5871582 C-457.69237762 526.59226913 -458.65868103 526.59738007 -459.65426636 526.60264587 C-462.85030299 526.61655188 -466.0461242 526.6155842 -469.2421875 526.61328125 C-471.46412232 526.61716787 -473.68605639 526.62150247 -475.9079895 526.62626648 C-480.5667766 526.63373105 -485.22548793 526.63343585 -489.88427734 526.62817383 C-495.8519114 526.62238159 -501.81923485 526.63930332 -507.78681755 526.6625185 C-512.37649344 526.67725751 -516.96609458 526.67812725 -521.55578995 526.67500877 C-523.75579569 526.67552199 -525.95580562 526.68075972 -528.15578842 526.69082069 C-531.23410912 526.70316956 -534.31182554 526.69640219 -537.39013672 526.68481445 C-538.29735474 526.69245819 -539.20457275 526.70010193 -540.13928223 526.70797729 C-546.69956003 526.65344858 -550.81797694 525.30505348 -555.9375 521 C-560.96154101 514.99906213 -560.4724796 508.41671392 -560.44146729 500.97073364 C-560.44458727 499.8228118 -560.44770725 498.67488996 -560.45092177 497.49218261 C-560.45751132 494.31397417 -560.45514947 491.1359189 -560.44894934 487.95771432 C-560.44442028 484.52582761 -560.45141148 481.09396147 -560.45690918 477.66207886 C-560.46580508 470.93711513 -560.4638788 464.21219604 -560.4580839 457.48723055 C-560.45356144 452.01084036 -560.45295706 446.53446266 -560.45513153 441.05807114 C-560.455438 440.27761083 -560.45574446 439.49715053 -560.45606022 438.69303992 C-560.45669972 437.10715867 -560.45734814 435.52127742 -560.4580054 433.93539618 C-560.46371102 419.05557117 -560.45715069 404.17577077 -560.44640467 389.2959498 C-560.43750052 376.57440333 -560.43899474 363.85289344 -560.44824219 351.13134766 C-560.45899545 336.33154603 -560.46312852 321.53176612 -560.45701766 306.73196113 C-560.45638065 305.14651164 -560.4557519 303.56106214 -560.45513153 301.97561264 C-560.45482298 301.19575234 -560.45451443 300.41589204 -560.45419653 299.61239962 C-560.4524823 294.16235167 -560.45535762 288.71231767 -560.46009064 283.26227188 C-560.4657573 276.59057493 -560.46406495 269.91892489 -560.45352915 263.24723317 C-560.44834403 259.85387771 -560.44720321 256.46066291 -560.45282745 253.06729889 C-560.52306239 206.33506464 -553.39913483 162.89535374 -531.1875 121.3125 C-530.83574707 120.64766602 -530.48399414 119.98283203 -530.12158203 119.29785156 C-524.85480189 109.40814036 -518.98377645 100.21720835 -512.1875 91.3125 C-511.73487793 90.71034668 -511.28225586 90.10819336 -510.81591797 89.48779297 C-497.69882641 72.16598259 -482.05227948 55.77629963 -464.1875 43.3125 C-463.49060059 42.82491211 -462.79370117 42.33732422 -462.07568359 41.83496094 C-456.85227328 38.21221833 -451.55493351 34.71787284 -446.1875 31.3125 C-445.58470215 30.92964844 -444.9819043 30.54679687 -444.36083984 30.15234375 C-425.43046914 18.31471938 -403.72144367 10.61368915 -382.0625 5.5625 C-380.79418335 5.26424316 -380.79418335 5.26424316 -379.50024414 4.95996094 C-365.70566676 1.90468936 -351.96558075 0.8998851 -337.875 0.9375 C-337.09847076 0.93804382 -336.32194153 0.93858765 -335.5218811 0.93914795 C-273.27920144 1.13769426 -217.06885907 27.90415973 -173.66259766 71.53710938 C-162.07021718 83.40555812 -150.64017301 97.40715398 -143.1875 112.3125 C-139.20309128 111.02025933 -137.55121527 109.72290443 -135.1875 106.3125 C-137.37273013 102.06145751 -139.55990205 97.81142159 -141.7487793 93.56225586 C-142.49115912 92.12046509 -143.2330331 90.67841373 -143.97436523 89.23608398 C-145.04794363 87.14756498 -146.12345598 85.06005079 -147.19921875 82.97265625 C-147.54564423 82.29756012 -147.8920697 81.62246399 -148.24899292 80.9269104 C-150.50447128 76.55476168 -152.88345563 72.28640442 -155.48364258 68.10717773 C-156.39266938 65.78936434 -156.04146808 64.61368749 -155.1875 62.3125 C-129.99958361 28.29582941 -73.73455435 8.43225727 -34.1875 2.3125 C-22.76281691 0.66707582 -11.53855014 -0.05831181 0 0 Z " fill="#02B464" transform="translate(574.1875,3.6875)"/>
<path d="M0 0 C0.53915039 0.41910645 1.07830078 0.83821289 1.63378906 1.27001953 C9.728678 7.63176536 17.0191464 14.81612256 24.3125 22.0625 C24.79318939 22.53783173 25.27387878 23.01316345 25.76913452 23.50289917 C27.1397515 24.86189205 28.50170578 26.22960479 29.86328125 27.59765625 C31.05884644 28.79660522 31.05884644 28.79660522 32.27856445 30.01977539 C34 32 34 32 34 34 C36.31 32.02 38.62 30.04 41 28 C39.38731743 23.30691253 36.84748839 19.47753628 34.125 15.375 C33.13831561 13.87045178 32.15267951 12.36521568 31.16796875 10.859375 C30.65282715 10.07240234 30.13768555 9.28542969 29.60693359 8.47460938 C26.31338894 3.40269072 23.10552795 -1.72368032 19.88525391 -6.84228516 C19.40620605 -7.60331543 18.9271582 -8.3643457 18.43359375 -9.1484375 C18.01134521 -9.82052246 17.58909668 -10.49260742 17.15405273 -11.18505859 C16.12454279 -12.80413559 15.06428756 -14.40356866 14 -16 C13.54896156 -19.08866573 13.62970669 -22.19431585 13.625 -25.3125 C13.60050781 -26.15490234 13.57601562 -26.99730469 13.55078125 -27.86523438 C13.52469382 -33.42620436 14.29441329 -36.59665199 18 -41 C23.43610689 -45.905755 27.69473419 -46.15180502 34.7824707 -46.16113281 C35.68035309 -46.16609772 36.57823547 -46.17106262 37.50332642 -46.17617798 C40.47748579 -46.190798 43.45159182 -46.19760148 46.42578125 -46.203125 C48.49220278 -46.20887674 50.55862428 -46.21463447 52.62504578 -46.22039795 C56.96023813 -46.23090759 61.29541193 -46.23675045 65.63061523 -46.24023438 C71.18237273 -46.24571789 76.73388482 -46.26974314 82.28556538 -46.29820633 C86.55525933 -46.31684143 90.82489429 -46.32203879 95.09462547 -46.32357025 C97.14112883 -46.32659551 99.18763118 -46.33461977 101.23409462 -46.34775543 C104.09936752 -46.36483336 106.96404238 -46.3629313 109.8293457 -46.35644531 C111.09434654 -46.37026749 111.09434654 -46.37026749 112.38490295 -46.3843689 C117.33660049 -46.34930309 120.70068813 -45.72306871 125 -43 C130.31994443 -37.3845031 131.29761449 -32.31676658 131.25447559 -24.76741982 C131.25928531 -23.52348965 131.25928531 -23.52348965 131.26419219 -22.25442958 C131.27252256 -19.4633834 131.26655728 -16.67255011 131.26069641 -13.88150024 C131.26371571 -11.865145 131.26760407 -9.84879089 131.27228898 -7.83243883 C131.28260632 -2.28186065 131.28037767 3.26865321 131.27610838 8.81923676 C131.27364792 14.80162256 131.28264685 20.7839926 131.29014587 26.76637268 C131.30291389 38.49029195 131.30468979 50.21419318 131.30234561 61.93811677 C131.30051382 71.46501968 131.30227016 80.99191584 131.30657005 90.5188179 C131.30717245 91.88695238 131.30777365 93.25508686 131.30837366 94.62322135 C131.3092809 96.68480683 131.31018956 98.74639231 131.31110601 100.8079778 C131.31953726 119.97899222 131.32387005 139.15000411 131.31969929 158.32102013 C131.31954291 159.04393218 131.31938654 159.76684424 131.31922542 160.51166273 C131.31841962 164.17576546 131.31757385 167.83986818 131.31671212 171.50397091 C131.31654103 172.23168832 131.31636994 172.95940574 131.31619367 173.7091752 C131.31584702 175.18079709 131.31549849 176.65241898 131.31514808 178.12404087 C131.30979057 201.02378987 131.31772145 223.92350037 131.33618164 246.82324219 C131.35689217 272.54470552 131.36762616 298.266145 131.36360615 323.98761714 C131.3632108 326.72959494 131.36284926 329.47157275 131.36250877 332.21355057 C131.36241804 332.88870669 131.36232731 333.56386281 131.36223383 334.25947821 C131.36106727 344.45696538 131.3677206 354.65442848 131.37832069 364.85190964 C131.39036222 376.44798155 131.39166504 388.04400984 131.37953053 399.64008425 C131.37362579 405.55885185 131.37258638 411.47751568 131.38453293 417.39627647 C131.39533745 422.81208103 131.39235334 428.2276945 131.37827124 433.64348991 C131.37560928 435.60509391 131.37803752 437.56671262 131.38600711 439.52830224 C131.39607623 442.19101271 131.38772279 444.85305416 131.37473011 447.51573753 C131.38203946 448.28044412 131.3893488 449.04515071 131.39687964 449.83303022 C131.33807762 455.63183383 130.21899067 460.46833338 126.28125 464.9609375 C125.6934375 465.42757812 125.105625 465.89421875 124.5 466.375 C123.9121875 466.85710938 123.324375 467.33921875 122.71875 467.8359375 C118.63320512 470.60296562 114.23521515 470.15468784 109.50878906 470.16113281 C108.64177368 470.16609772 107.7747583 470.17106262 106.88146973 470.17617798 C104.00951344 470.19079749 101.13761241 470.19760185 98.265625 470.203125 C96.26885985 470.20887736 94.27209471 470.21463508 92.27532959 470.22039795 C88.08556867 470.23090784 83.89582694 470.23675035 79.70605469 470.24023438 C74.34496223 470.24571399 68.98412441 470.26973075 63.62311172 470.29820633 C59.49663561 470.31685884 55.37022045 470.32203974 51.24370575 470.32357025 C49.26780559 470.32659224 47.29190638 470.33460543 45.31604767 470.34775543 C42.54676641 470.36486775 39.77810219 470.36292283 37.00878906 470.35644531 C35.79125946 470.37026749 35.79125946 470.37026749 34.5491333 470.3843689 C27.95280975 470.33619448 23.29323967 468.98747438 18.1875 464.5625 C13.25416087 458.7834456 12.82077298 452.62328144 13.1171875 445.24609375 C14.1566303 436.01104423 20.07960813 428.3944387 25.11279297 420.85058594 C27.66548747 416.99479538 30.09063776 413.06556522 32.51489258 409.12817383 C33.65108193 407.28440406 34.79517314 405.44547483 35.94799805 403.61206055 C36.46531494 402.78746338 36.98263184 401.96286621 37.515625 401.11328125 C37.97227539 400.38923096 38.42892578 399.66518066 38.89941406 398.91918945 C40.14558729 396.89260337 40.14558729 396.89260337 41 394 C39.35 393.01 37.7 392.02 36 391 C35.19175781 391.80824219 34.38351562 392.61648438 33.55078125 393.44921875 C31.40494792 395.59505208 29.25911458 397.74088542 27.11328125 399.88671875 C26.32570435 400.6746582 26.32570435 400.6746582 25.5222168 401.47851562 C24.13373835 402.866326 22.74278146 404.25165563 21.3515625 405.63671875 C19.89672789 407.09880337 18.4550149 408.57423878 17.03515625 410.0703125 C10.57937297 416.7945541 3.44057226 422.42354972 -4 428 C-4.57943359 428.43489746 -5.15886719 428.86979492 -5.75585938 429.31787109 C-14.48609306 435.82115534 -23.52484893 441.64379142 -33 447 C-33.70721191 447.4021875 -34.41442383 447.804375 -35.14306641 448.21875 C-47.9496398 455.42896066 -61.17442997 461.04315327 -75 466 C-75.81968262 466.29390625 -76.63936523 466.5878125 -77.48388672 466.890625 C-140.38709225 489.0012647 -211.91409753 483.35850172 -271.9921875 455.2421875 C-303.74015333 439.95556727 -335.26761011 418.2884596 -358 391 C-358.88560781 389.99656307 -359.77387339 388.99546866 -360.6640625 387.99609375 C-372.36027508 374.77671618 -382.39272542 360.40449504 -391 345 C-391.68811768 343.77531006 -391.68811768 343.77531006 -392.39013672 342.52587891 C-427.23951165 279.87054046 -434.75788425 206.44760634 -415.83789062 137.55371094 C-404.47729366 97.76790423 -383.96166339 61.83810011 -356.12109375 31.34375 C-354.18168497 29.20075688 -352.30670701 27.01655362 -350.4375 24.8125 C-347.58000632 21.53651754 -344.52006093 18.69873472 -341.203125 15.89453125 C-338.73242966 13.76990848 -336.3758745 11.54254987 -334 9.3125 C-257.23321069 -60.38921392 -139.38370478 -75.44321576 0 0 Z M-271.1328125 110.3125 C-297.80487539 139.85967492 -311.74627811 180.22025769 -309.8125 219.875 C-307.87682634 249.29907725 -298.17505066 278.57362138 -280 302 C-279.42636719 302.79277344 -278.85273438 303.58554687 -278.26171875 304.40234375 C-268.12058932 317.91635436 -255.35146795 330.07368421 -241 339 C-240.14825195 339.53028809 -240.14825195 339.53028809 -239.27929688 340.07128906 C-203.91122011 361.74270927 -163.04253689 369.1357319 -122.4375 359.875 C-82.78662796 350.1348938 -48.91617099 324.82194649 -27.56811523 290.16748047 C-16.78980382 272.12960224 -10.12104649 252.75262999 -7 232 C-6.80277344 230.75669922 -6.80277344 230.75669922 -6.6015625 229.48828125 C-2.92478218 201.01807691 -8.48859495 171.6392953 -21 146 C-21.30808594 145.36465332 -21.61617187 144.72930664 -21.93359375 144.07470703 C-29.20206636 129.29271476 -38.59721325 116.82511219 -50 105 C-50.71542969 104.22140625 -51.43085938 103.4428125 -52.16796875 102.640625 C-77.09795682 76.26067514 -115.42745236 61.05087764 -151.30078125 59.78125 C-197.37993849 58.74272502 -239.73826016 76.61502439 -271.1328125 110.3125 Z " fill="#02B464" transform="translate(2424,60)"/>
<path d="M0 0 C0.93529037 -0.0049649 1.87058075 -0.00992981 2.83421326 -0.01504517 C5.93342827 -0.02966912 9.03259207 -0.03646969 12.13183594 -0.04199219 C14.28554282 -0.04774407 16.43924969 -0.05350179 18.59295654 -0.05926514 C23.11226643 -0.06977621 27.63155852 -0.07561798 32.15087891 -0.07910156 C37.93570226 -0.08458221 43.72028976 -0.10860075 49.50503922 -0.13707352 C53.95577679 -0.15571896 58.40645781 -0.16090655 62.85723114 -0.16243744 C64.98943113 -0.16546089 67.12163019 -0.17347901 69.25379181 -0.18662262 C72.24099023 -0.20372041 75.22761594 -0.20179346 78.21484375 -0.1953125 C79.09198532 -0.20452728 79.96912689 -0.21374207 80.87284851 -0.22323608 C88.26833589 -0.1730978 93.63074244 1.60505843 99.24121094 6.66113281 C99.90894531 7.24894531 100.57667969 7.83675781 101.26464844 8.44238281 C103.91385388 11.28543255 103.99145066 13.97315225 103.99370289 17.67992687 C103.99671054 18.61161605 103.99971819 19.54330523 104.00281698 20.50322741 C104.0010666 21.52867405 103.99931623 22.5541207 103.99751282 23.61064148 C104.00068639 25.24292473 104.00068639 25.24292473 104.00392407 26.9081834 C104.00994076 30.57413419 104.00892269 34.24005071 104.00805664 37.90600586 C104.01108733 40.52757323 104.01460853 43.14914007 104.01858521 45.77070618 C104.02670474 51.42968933 104.03164473 57.08866797 104.03487587 62.74765587 C104.04038072 71.71442425 104.05729086 80.68115474 104.07621765 89.64790344 C104.08257525 92.71939748 104.08888373 95.79089162 104.09519482 98.86238575 C104.09677858 99.63017057 104.09836234 100.39795539 104.0999941 101.18900641 C104.11794027 109.9345139 104.13415721 118.68002411 104.14916992 127.42553711 C104.15054579 128.22501114 104.15192166 129.02448518 104.15333923 129.8481857 C104.17518452 142.75189946 104.186004 155.65560343 104.19354067 168.55933239 C104.20165117 181.83497246 104.22507473 195.11052946 104.26149434 208.38612205 C104.28336977 216.55578501 104.2932303 224.72527641 104.286994 232.89496712 C104.28378533 238.51720228 104.29537032 244.13929265 104.31788842 249.76148298 C104.33038447 252.99084745 104.33469421 256.21983024 104.32547188 259.44921494 C104.23267269 295.63838413 111.31687359 329.21069325 133.86621094 358.16113281 C134.50042969 358.98097656 135.13464844 359.80082031 135.78808594 360.64550781 C153.68009983 382.2076784 181.63690921 393.75457791 208.86621094 397.16113281 C248.75743005 399.07453896 283.83515155 391.9570006 314.42871094 364.59863281 C337.13155588 343.4604294 350.35262897 313.92538443 352.86621094 283.16113281 C352.99839251 279.3606378 352.99553908 275.56429719 352.98405457 271.7618103 C352.98475915 270.64424965 352.98546373 269.52668899 352.98618966 268.37526286 C352.98749355 264.64680669 352.98183429 260.91839323 352.97631836 257.18994141 C352.97607611 254.51034909 352.97626393 251.83076063 352.97711182 249.15116882 C352.97822922 244.13424865 352.97759602 239.117334 352.97491101 234.10041441 C352.96977215 224.24568467 352.97815964 214.39100581 352.99153137 204.5362854 C352.99357791 202.98259779 352.99562025 201.42891018 352.99765843 199.87522256 C353.00181386 196.73064798 353.00602888 193.58607347 353.01026595 190.44149899 C353.02105498 182.37050573 353.030869 174.2995117 353.03930664 166.22851562 C353.04058352 165.01424741 353.04058352 165.01424741 353.04188619 163.77544852 C353.05511968 150.64398072 353.05007855 137.51257357 353.03923508 124.38110642 C353.02860568 110.88724765 353.04078195 97.39354007 353.07331735 83.89971602 C353.09258817 75.58211103 353.09361142 67.26491011 353.07116107 58.9473113 C353.05741706 53.24998586 353.06555007 47.55295535 353.09088566 41.85567068 C353.10483066 38.56945872 353.10577453 35.28414491 353.08706093 31.99793434 C353.06826701 28.43341663 353.08624824 24.87090835 353.1134491 21.30648804 C353.09918088 20.27078812 353.08491266 19.2350882 353.07021207 18.16800344 C353.16226774 12.20607438 353.99221986 8.71863278 358.29097265 4.45063376 C363.96702472 -0.1958217 371.35730958 -0.28087743 378.38989258 -0.24291992 C379.74784187 -0.2532148 379.74784187 -0.2532148 381.13322449 -0.26371765 C384.09776914 -0.2818794 387.06177936 -0.2781643 390.02636719 -0.27246094 C392.10184398 -0.27702693 394.17731925 -0.28233375 396.25279236 -0.28834534 C400.59087286 -0.29725489 404.92876903 -0.2948768 409.2668457 -0.28491211 C414.81388177 -0.27340902 420.36028249 -0.29366576 425.90723515 -0.32282925 C430.18904122 -0.34120901 434.47069541 -0.34089549 438.75253105 -0.33519173 C440.79737682 -0.33503882 442.84223307 -0.3410579 444.88704109 -0.3534832 C447.7490704 -0.36842972 450.60993009 -0.35769017 453.47192383 -0.34057617 C454.30799164 -0.35024414 455.14405945 -0.35991211 456.00546265 -0.36987305 C461.68105345 -0.29912514 466.16292296 0.88019214 470.86621094 4.16113281 C475.34156954 9.78401926 476.01356902 14.17346455 475.9976387 21.14863396 C475.99969134 21.97577542 476.00174397 22.80291688 476.0038588 23.65512323 C476.00955255 26.45107626 476.00806861 29.2469804 476.00665283 32.04293823 C476.00923519 34.05838647 476.01224798 36.07383419 476.01565623 38.0892812 C476.0237462 43.64749379 476.02551693 49.20569347 476.0262537 54.76391125 C476.02810105 60.75220272 476.0356473 66.74048744 476.04238892 72.72877502 C476.0567022 86.52404308 476.06250345 100.31930936 476.06708086 114.11458302 C476.06941739 120.93952951 476.07302035 127.76447515 476.07677624 134.58942098 C476.08961987 157.97382236 476.10033314 181.35822327 476.10377884 204.7426281 C476.10400047 206.21144798 476.10422225 207.68026786 476.10444419 209.14908773 C476.10466483 210.62140767 476.10488531 212.09372761 476.10510564 213.56604755 C476.10554818 216.51961764 476.1059953 219.47318773 476.10644531 222.42675781 C476.1066094 223.52523298 476.1066094 223.52523298 476.1067768 224.64589956 C476.11039883 248.33455302 476.12628228 272.02317571 476.14963568 295.7118174 C476.17430521 320.78165682 476.1879552 345.85147868 476.18914676 370.92133057 C476.18931819 373.68114671 476.18953361 376.44096283 476.18978119 379.20077896 C476.18983696 379.88027738 476.18989273 380.5597758 476.18995018 381.25986508 C476.19109519 392.13954351 476.20207115 403.01919014 476.21666824 413.89885789 C476.23113048 424.86919686 476.23396646 435.83949374 476.22622827 446.80983953 C476.2223493 452.73942289 476.22311453 458.66890065 476.23728561 464.59847069 C476.40034111 537.11621312 465.28697018 604.24366803 412.86621094 658.16113281 C398.53098422 672.55859641 381.91315503 683.94390523 363.86621094 693.16113281 C363.15658203 693.53544434 362.44695312 693.90975586 361.71582031 694.29541016 C332.70057008 709.53567694 300.28470877 716.92376769 267.86621094 720.16113281 C266.91504395 720.25612061 265.96387695 720.3511084 264.98388672 720.44897461 C253.82958682 721.3986229 242.64794958 721.41736336 231.45996094 721.45629883 C229.13665725 721.46790881 226.81338202 721.48849941 224.49023438 721.51782227 C221.09715035 721.56048608 217.70484221 721.57665394 214.31152344 721.58691406 C213.28116974 721.60442215 212.25081604 721.62193024 211.1892395 721.63996887 C204.90044706 721.62110399 200.09405162 720.81559132 194.86621094 717.16113281 C192.49121094 714.66113281 192.49121094 714.66113281 190.86621094 712.16113281 C190.50868744 711.6267157 190.15116394 711.09229858 189.7828064 710.54168701 C188.40064422 706.95197692 188.57146224 703.36628149 188.57568359 699.57226562 C188.56896637 698.70671051 188.56224915 697.8411554 188.55532837 696.94937134 C188.53632995 694.08760841 188.53242291 691.22607989 188.53027344 688.36425781 C188.52384562 686.37131657 188.51711727 684.37837627 188.51010132 682.38543701 C188.49812311 678.205829 188.49442094 674.02630366 188.49560547 669.84667969 C188.49580842 664.50242124 188.46853343 659.15869599 188.43406105 653.81456375 C188.41177143 649.69661039 188.4077686 645.57878478 188.40882492 641.46077728 C188.40647103 639.4912813 188.39765948 637.52178168 188.38216019 635.55234528 C188.36246334 632.79038223 188.36835318 630.02956137 188.38037109 627.26757812 C188.36913208 626.46105804 188.35789307 625.65453796 188.34631348 624.82357788 C188.41736801 618.36529242 190.0889055 613.00625623 194.6758728 608.30728149 C199.95116789 605.14958035 204.18353898 604.46041987 210.28027344 604.55957031 C211.16418259 604.55287827 212.04809174 604.54618622 212.95878601 604.53929138 C214.83589423 604.52613108 216.71309695 604.52307276 218.59024048 604.52944946 C223.46033542 604.54066935 228.32887068 604.46104807 233.19824219 604.38378906 C234.14356308 604.36996689 235.08888397 604.35614471 236.06285095 604.34190369 C273.37161327 603.7017817 313.01075471 590.76623834 340.42871094 564.72753906 C351.09993667 553.4614646 358.24835978 539.85028141 357.83105469 524.12597656 C357.62166897 501.82798426 357.62166897 501.82798426 365.85839844 493.23925781 C366.34663086 492.75908203 366.83486328 492.27890625 367.33789062 491.78417969 C370.33973322 488.5962804 372.73385852 484.92815149 375.24121094 481.34863281 C381.31977357 472.85424281 387.56668503 464.49239771 393.86621094 456.16113281 C393.20621094 454.84113281 392.54621094 453.52113281 391.86621094 452.16113281 C387.51517727 454.97458315 383.45888256 458.02916482 379.42871094 461.28613281 C348.48891265 485.84264027 311.49311982 502.26653766 272.86621094 510.16113281 C271.83850586 510.37141113 270.81080078 510.58168945 269.75195312 510.79833984 C208.93707942 522.61150279 142.52397824 509.52220406 90.92871094 475.09863281 C88.55485074 473.47972155 86.2049987 471.83023266 83.86621094 470.16113281 C82.84269531 469.4328125 81.81917969 468.70449219 80.76464844 467.95410156 C61.8328302 454.09241406 44.00415546 437.81886397 30.11523438 418.84570312 C28.85815717 417.15027061 27.56000846 415.49481251 26.24902344 413.84082031 C2.52773285 383.43212164 -11.39879984 345.80724967 -18.13378906 308.16113281 C-18.25979492 307.46890625 -18.38580078 306.77667969 -18.515625 306.06347656 C-20.62827437 294.25270088 -21.2845242 282.36941869 -21.27423096 270.38795471 C-21.27720208 269.27852145 -21.2801732 268.16908818 -21.28323436 267.02603573 C-21.29183047 263.34913636 -21.29342175 259.6722699 -21.29492188 255.99536133 C-21.29955608 253.34311271 -21.30456171 250.69086693 -21.30996704 248.03862 C-21.32346187 240.86566366 -21.32955912 233.69271297 -21.3339777 226.51974607 C-21.33675116 222.03723551 -21.34099007 217.55472706 -21.34548187 213.07221794 C-21.35765532 200.64595075 -21.36796335 188.21968523 -21.37135696 175.79341221 C-21.37157653 175.00062311 -21.3717961 174.20783402 -21.37202232 173.39102101 C-21.37224059 172.59644311 -21.37245887 171.80186521 -21.37268376 170.98320919 C-21.37312722 169.37332761 -21.37357378 167.76344603 -21.37402344 166.15356445 C-21.37424487 165.35502385 -21.3744663 164.55648324 -21.37469444 163.73374444 C-21.37865076 150.76674639 -21.39613872 137.79980423 -21.41938296 124.83282781 C-21.44308863 111.50049875 -21.45555819 98.1681978 -21.45672488 84.83584732 C-21.45764126 77.35755506 -21.46338573 69.879336 -21.48154449 62.40106392 C-21.49693379 56.04155763 -21.50207231 49.68214725 -21.49380639 43.32262588 C-21.48989778 40.07925732 -21.49246991 36.83612257 -21.50486374 33.59276962 C-21.51751384 30.07682069 -21.51174412 26.56137043 -21.50128174 23.04542542 C-21.50933814 22.02121398 -21.51739455 20.99700255 -21.52569509 19.9417544 C-21.48312502 13.8406804 -20.9267703 9.22322943 -16.63378906 4.51660156 C-11.05334808 0.17141444 -6.86411771 0.00866785 0 0 Z " fill="#02B464" transform="translate(1474.1337890625,13.8388671875)"/>
<path d="M0 0 C0.64888184 0.34111816 1.29776367 0.68223633 1.96630859 1.03369141 C19.72939084 10.42481123 35.83195384 22.31769809 50.64453125 35.8671875 C52.66311204 37.69495717 54.72228353 39.44346194 56.8125 41.1875 C63.04742864 46.58681964 68.45765173 52.90848613 74 59 C75.98 57.35 77.96 55.7 80 54 C78.6392899 50.31955991 76.96910963 47.13918212 74.875 43.82421875 C74.2550415 42.83945557 73.63508301 41.85469238 72.99633789 40.84008789 C72.33754639 39.79973389 71.67875488 38.75937988 71 37.6875 C70.33025146 36.61169678 69.66050293 35.53589355 68.97045898 34.42749023 C66.01366929 29.69017658 63.04826017 24.99412427 59.78515625 20.4609375 C54.02254205 12.3253068 51.41325606 5.85740286 52.34375 -4.26171875 C53.18797451 -9.07078335 54.25497499 -12.74882444 58 -16 C63.59321069 -19.80724742 67.54465298 -20.57918838 74.23657227 -20.50170898 C75.13503876 -20.50711197 76.03350525 -20.51251495 76.959198 -20.51808167 C79.9119418 -20.53053006 82.86370322 -20.51410506 85.81640625 -20.49609375 C87.87711132 -20.49624881 89.93781668 -20.49773903 91.9985199 -20.50050354 C96.30993599 -20.50188575 100.62101869 -20.48935803 104.93237305 -20.46655273 C110.45269069 -20.43815101 115.97245539 -20.44091277 121.49281406 -20.45364285 C125.74538377 -20.4606042 129.99782612 -20.45280576 134.25037956 -20.44038582 C136.28569996 -20.43587704 138.32103405 -20.4355295 140.35635567 -20.43945122 C143.20212878 -20.44236834 146.04714492 -20.42583292 148.89282227 -20.40405273 C150.14839684 -20.41080521 150.14839684 -20.41080521 151.42933655 -20.41769409 C157.03419207 -20.34658135 161.38502136 -19.44106082 165.64453125 -15.46484375 C169.58992807 -10.30547868 170.14584407 -7.4610652 170.13142776 -1.08691788 C170.13450672 0.15986707 170.13450672 0.15986707 170.13764787 1.43183959 C170.14335119 4.2473599 170.14185654 7.06283182 170.14044189 9.87835693 C170.14302363 11.90520924 170.14603624 13.93206105 170.1494453 15.95891213 C170.15754116 21.55238661 170.1593063 27.14584827 170.16004276 32.73932791 C170.16188884 38.76264385 170.16943391 44.78595306 170.17617798 50.80926514 C170.19048995 64.67870512 170.19629028 78.54814198 170.20086992 92.4175875 C170.20320431 99.26858928 170.20680679 106.11959023 170.2105653 112.97059136 C170.22340226 136.41369072 170.23412128 159.85678962 170.2375679 183.29989243 C170.23778954 184.77209962 170.23801132 186.24430681 170.23823325 187.71651401 C170.2384539 189.1923175 170.23867438 190.66812099 170.2388947 192.14392447 C170.23933726 195.10473871 170.23978437 198.06555295 170.24023438 201.02636719 C170.24034377 201.76047947 170.24045316 202.49459174 170.24056586 203.25094985 C170.24419709 227.05854935 170.26011889 250.86611841 170.28342474 274.67370624 C170.30800918 299.83333776 170.3217401 324.99295188 170.32293582 350.15259576 C170.32310728 352.91341925 170.32332271 355.67424274 170.32357025 358.43506622 C170.32362602 359.11487872 170.32368179 359.79469122 170.32373925 360.49510409 C170.32489092 371.44539774 170.33592278 382.3956602 170.35045731 393.34594331 C170.36480888 404.34848973 170.36781395 415.35100137 170.36001733 426.35355541 C170.35610009 432.31673657 170.35709266 438.27981261 170.37107468 444.24298096 C170.38374934 449.6983236 170.38267296 455.15348142 170.37048396 460.60882357 C170.36851576 462.58597899 170.37165681 464.56314722 170.38032833 466.5402846 C170.39134689 469.22160075 170.38398538 471.90225612 170.3719368 474.58355331 C170.37953199 475.35655749 170.38712718 476.12956167 170.39495254 476.92599022 C170.34169074 482.39222573 169.23063304 486.55443617 165.5 490.64453125 C160.00060427 494.92661282 155.90728065 495.15577872 149.14160156 495.17700195 C147.78255707 495.18685875 147.78255707 495.18685875 146.39605713 495.19691467 C143.39424558 495.2166434 140.39248407 495.22830956 137.390625 495.23828125 C135.85226612 495.24439454 135.85226612 495.24439454 134.28282928 495.25063133 C128.85424501 495.27149059 123.425686 495.28579276 117.99707031 495.29516602 C112.39377342 495.30622809 106.7908739 495.34062631 101.18771744 495.38033772 C96.87594877 495.40649989 92.56427483 495.41485753 88.25243378 495.41844749 C86.18720568 495.42331472 84.12198185 495.43493255 82.05683136 495.45348549 C79.16289404 495.47786732 76.26998544 495.47691349 73.37597656 495.4699707 C72.52688721 495.48278076 71.67779785 495.49559082 70.80297852 495.50878906 C63.95525597 495.44907005 59.62785847 493.62785847 54.6875 488.6875 C50.3544841 481.78677097 49.93303119 473.96486717 51 466 C52.88417124 461.43569703 55.47900132 457.51099289 58.25 453.4375 C58.98099047 452.31730053 59.70882018 451.19503261 60.43359375 450.07080078 C61.89832947 447.8028229 63.37528957 445.54361919 64.86132812 443.28955078 C68.04203338 438.39721943 71.02617767 433.39481575 74 428.375 C74.97877435 426.73674471 75.95789837 425.09869825 76.9375 423.4609375 C77.62523574 422.30743218 78.31283762 421.15384697 79 420 C77.35 418.68 75.7 417.36 74 416 C70.0942931 419.81440466 66.25971142 423.62684416 62.75 427.8125 C54.09294252 437.81794792 43.55657882 446.10081349 33 454 C32.34370605 454.49145508 31.68741211 454.98291016 31.01123047 455.48925781 C20.49168893 463.29545542 9.63489717 469.99242356 -2 476 C-2.84208008 476.4419873 -3.68416016 476.88397461 -4.55175781 477.33935547 C-27.57504964 489.3187816 -52.40505321 497.65547029 -78 502 C-78.93376465 502.16081055 -79.8675293 502.32162109 -80.82958984 502.48730469 C-144.00462432 512.91435649 -209.54330923 493.45624178 -261.2265625 456.74609375 C-272.14347347 448.85667912 -282.31318955 440.35704669 -292 431 C-292.93126709 430.101604 -292.93126709 430.101604 -293.88134766 429.18505859 C-301.78565751 421.51817482 -309.31988504 413.77736035 -316 405 C-316.49790039 404.3620752 -316.99580078 403.72415039 -317.50878906 403.06689453 C-351.14538476 359.8751243 -372.65269948 305.06358629 -374 250 C-374.0306958 248.74799805 -374.0306958 248.74799805 -374.06201172 247.47070312 C-375.26756885 189.72352039 -360.20559213 131.19796829 -326 84 C-325.26394531 82.97261719 -324.52789063 81.94523437 -323.76953125 80.88671875 C-318.20129707 73.28829654 -312.19714744 66.08774242 -306 59 C-305.13632812 58.01128906 -304.27265625 57.02257812 -303.3828125 56.00390625 C-240.42041912 -14.33835223 -141.84419585 -45.20716433 0 0 Z M-186 101 C-186.95302002 101.46212891 -186.95302002 101.46212891 -187.92529297 101.93359375 C-203.1887081 109.43878742 -215.81031355 119.21439156 -228 131 C-228.66515625 131.61359375 -229.3303125 132.2271875 -230.015625 132.859375 C-253.35539853 154.89037618 -266.60447865 187.80491939 -271 219 C-271.19722656 220.32837891 -271.19722656 220.32837891 -271.3984375 221.68359375 C-276.17891065 259.99197994 -263.84579357 299.78493461 -240.65551758 330.1965332 C-216.22258024 361.41189654 -180.14247664 383.73028284 -140.40234375 388.69140625 C-139.27957031 388.79324219 -138.15679688 388.89507812 -137 389 C-136.29117676 389.06558105 -135.58235352 389.13116211 -134.85205078 389.19873047 C-94.12636122 392.73015333 -53.95916 380.53021983 -22.59765625 354.22265625 C-21.74042969 353.48917969 -20.88320312 352.75570313 -20 352 C-19.19433594 351.31808594 -18.38867188 350.63617188 -17.55859375 349.93359375 C-12.57389696 345.62364441 -8.16112469 341.10524542 -4 336 C-3.26265625 335.1234375 -2.5253125 334.246875 -1.765625 333.34375 C16.24776678 311.08516398 27.44090221 284.39001259 31 256 C31.11085938 255.11570312 31.22171875 254.23140625 31.3359375 253.3203125 C35.38472296 215.56812377 24.40544497 174.7927732 0.4375 145.0625 C-1.02836333 143.36343114 -2.50718911 141.67544201 -4 140 C-4.70640625 139.17371094 -5.4128125 138.34742188 -6.140625 137.49609375 C-32.2055028 107.54023599 -69.31719335 88.81602756 -109 86 C-135.97402505 84.66675289 -161.6987929 89.14155219 -186 101 Z " fill="#02B464" transform="translate(1224,34)"/>
</svg>
