<?xml version="1.0" encoding="UTF-8"?>
<svg version="1.1" xmlns="http://www.w3.org/2000/svg" width="2865" height="1025">
<path d="M0 0 C1.53140625 -0.00386719 1.53140625 -0.00386719 3.09375 -0.0078125 C5.5 0.125 5.5 0.125 6.5 1.125 C7.10538207 7.34832764 5.36520713 11.45173806 2.8125 16.9375 C-2.88910047 29.81968752 -6.76427681 43.11811753 -8.5 57.125 C-8.61085938 57.99898438 -8.72171875 58.87296875 -8.8359375 59.7734375 C-14.05549327 107.87799205 5.72411247 157.02637791 35.5 194.125 C46.68335564 207.89192913 58.66201868 220.29729194 72.89355469 230.92431641 C74.33707281 232.00322555 75.76710618 233.10012084 77.1953125 234.19921875 C134.79321432 277.61782058 208.93018904 292.66287819 279.16015625 300.08203125 C280.42673569 300.21768494 280.42673569 300.21768494 281.71890259 300.3560791 C286.23129109 300.82770822 290.73835112 301.22265606 295.26513672 301.52880859 C296.21368027 301.59976242 297.16222382 301.67071625 298.13951111 301.74382019 C299.94889451 301.87683155 301.75971281 301.99202015 303.57154846 302.08589172 C309.502968 302.53998058 312.38287463 303.76930477 316.5 308.125 C317.70922852 310.0456543 317.70922852 310.0456543 318.37890625 311.94921875 C318.65331543 312.70799316 318.92772461 313.46676758 319.21044922 314.24853516 C319.63221436 315.51769775 319.63221436 315.51769775 320.0625 316.8125 C320.38492676 317.7411084 320.70735352 318.6697168 321.03955078 319.62646484 C322.22848327 323.11483524 323.371498 326.61675022 324.5 330.125 C324.85315277 331.22143829 324.85315277 331.22143829 325.21343994 332.34002686 C331.61147461 352.25935541 337.66357582 372.27521311 343.25 392.4375 C343.4625946 393.20475403 343.67518921 393.97200806 343.89422607 394.76251221 C349.68306992 415.72544451 349.68306992 415.72544451 348.5 425.125 C345.97353559 428.60742391 344.54319535 429.77726822 340.5 431.125 C270.7497658 435.98294093 192.93977537 429.07252901 124.5 415.125 C123.83194336 414.98984985 123.16388672 414.85469971 122.47558594 414.7154541 C80.14512454 406.12776186 38.82111402 394.17095817 -0.5 376.125 C-2.10931908 375.40221922 -3.71869252 374.67955949 -5.328125 373.95703125 C-22.43905782 366.1667312 -39.16041953 357.0195884 -54.5 346.125 C-55.64553532 345.32769666 -56.79138704 344.53084777 -57.9375 343.734375 C-68.18413596 336.56519387 -77.80077273 328.80014209 -87.0390625 320.36328125 C-88.66422249 318.88515954 -90.30473906 317.42372739 -91.9609375 315.98046875 C-131.11666018 281.70377145 -159.49070254 229.1251569 -163.5 177.125 C-165.08842109 148.1420702 -160.35178368 120.24904787 -147.5 94.125 C-147.19336426 93.49400391 -146.88672852 92.86300781 -146.57080078 92.21289062 C-140.24221149 79.33918178 -132.37945681 67.84519114 -122.57421875 57.35546875 C-120.67519913 55.31339681 -118.90162345 53.21048418 -117.125 51.0625 C-112.79191155 46.10186081 -107.68625572 42.15416281 -102.5 38.125 C-101.56027344 37.38121094 -100.62054688 36.63742187 -99.65234375 35.87109375 C-71.86322393 14.36538191 -35.45944182 -0.09139031 0 0 Z " fill="#0083CB" transform="translate(429.5,327.875)"/>
<path d="M0 0 C0.67353516 0.24202148 1.34707031 0.48404297 2.04101562 0.73339844 C34.61193747 12.68222104 65.91179672 36.29997406 88 63 C88.86496094 63.97710937 89.72992187 64.95421875 90.62109375 65.9609375 C142.60265559 124.7703664 173.04604272 203.10504505 194.0625 277.8125 C194.28656525 278.60817383 194.51063049 279.40384766 194.7414856 280.22363281 C197.07027945 288.5391625 199.27256125 296.88321194 201.30078125 305.27734375 C201.47158707 305.96995804 201.64239288 306.66257233 201.81837463 307.37617493 C203.06442837 312.65578477 203.97747044 317.81302257 202 323 C199.37278592 326.44671204 196.22738523 328.20072709 192 329 C188.23769201 329.33387159 184.46169822 329.42859284 180.6875 329.5625 C178.93155518 329.6251001 178.93155518 329.6251001 177.14013672 329.68896484 C87.0269473 332.53146921 -10.00093938 326.75248647 -130 250 C-131.40572266 248.69289063 -131.40572266 248.69289063 -132.83984375 247.359375 C-157.97396198 223.44095372 -175.99789677 189.91973626 -183 156 C-183.22558594 154.92234375 -183.45117188 153.8446875 -183.68359375 152.734375 C-190.10702143 116.05438798 -179.82684635 78.78779609 -159.28515625 48.25 C-137.34471591 17.04581819 -104.99984344 -0.04641444 -68 -7 C-45.03875798 -10.67473496 -21.73002857 -7.87581035 0 0 Z " fill="#92C83E" transform="translate(632,274)"/>
<path d="M0 0 C1.21854172 -0.03212585 2.43708344 -0.06425171 3.69255066 -0.09735107 C5.02978725 -0.12033004 6.36705512 -0.14154646 7.7043457 -0.16113281 C8.37779337 -0.17178017 9.05124104 -0.18242752 9.74509621 -0.19339752 C13.3127652 -0.24686219 16.88029453 -0.28560238 20.44824219 -0.31445312 C23.39514959 -0.3410933 26.33927288 -0.39669235 29.28515625 -0.47851562 C32.84753065 -0.57745721 36.40738941 -0.62672475 39.97107887 -0.64090729 C41.98063145 -0.66077478 43.98951545 -0.7292104 45.99797058 -0.79852295 C54.93391343 -0.7572563 54.93391343 -0.7572563 58.49710083 2.47836304 C60.31325842 5.0355323 61.78054537 7.5883114 63.19262695 10.38574219 C64.19519531 11.94059326 64.19519531 11.94059326 65.21801758 13.52685547 C65.75620117 14.41099121 66.29438477 15.29512695 66.84887695 16.20605469 C67.47109131 17.22352783 68.09330566 18.24100098 68.734375 19.28930664 C69.38059814 20.35238037 70.02682129 21.4154541 70.69262695 22.51074219 C72.10375261 24.82033737 73.51733453 27.12842596 74.9309082 29.43652344 C75.28651321 30.01776474 75.64211823 30.59900604 76.00849915 31.19786072 C79.59483194 37.0548221 83.23315711 42.87887243 86.88012695 48.69824219 C91.50478017 56.08156601 96.11275175 63.47455635 100.69262695 70.88574219 C102.85846892 74.38625306 105.02551716 77.88601611 107.19262695 81.38574219 C107.8386084 82.42988281 108.48458984 83.47402344 109.15014648 84.54980469 C111.18172703 87.83058186 113.21794072 91.10844355 115.25512695 94.38574219 C115.88676758 95.40732422 116.5184082 96.42890625 117.16918945 97.48144531 C117.76602539 98.43986328 118.36286133 99.39828125 118.9777832 100.38574219 C119.50251221 101.23136719 120.02724121 102.07699219 120.56787109 102.94824219 C122.30533204 105.55482523 124.20362082 107.96730075 126.19262695 110.38574219 C126.80182983 109.3928418 126.80182983 109.3928418 127.42333984 108.37988281 C134.80426097 96.35523991 142.2002666 84.34140147 149.69262695 72.38574219 C154.89946348 64.07677062 160.06146636 55.74165371 165.19262695 47.38574219 C170.52663164 38.70650711 175.87237922 30.03485138 181.25512695 21.38574219 C181.8500293 20.42539062 182.44493164 19.46503906 183.05786133 18.47558594 C183.62956055 17.5590625 184.20125977 16.64253906 184.7902832 15.69824219 C185.28020752 14.910625 185.77013184 14.12300781 186.27490234 13.31152344 C187.22417603 11.86326172 187.22417603 11.86326172 188.19262695 10.38574219 C188.61250381 9.55403503 189.03238068 8.72232788 189.46498108 7.86541748 C191.80995113 3.72212984 193.49264726 0.88737356 198.19804382 -0.50109863 C201.9590067 -0.80659606 205.59720855 -0.79127835 209.3684082 -0.66113281 C210.74363321 -0.64753662 212.11890507 -0.63810265 213.4941864 -0.63262939 C217.09710396 -0.60592135 220.69602564 -0.51751438 224.29754639 -0.41748047 C227.24481363 -0.34642467 230.19168872 -0.32047987 233.13966084 -0.2966423 C236.65365922 -0.26710752 240.16723584 -0.21668474 243.6809082 -0.16113281 C244.68678199 -0.14640049 244.68678199 -0.14640049 245.71297646 -0.13137054 C247.60396346 -0.09887597 249.49464467 -0.04984436 251.38525391 0 C252.99905693 0.03858124 252.99905693 0.03858124 254.64546204 0.07794189 C257.19262695 0.38574219 257.19262695 0.38574219 259.19262695 2.38574219 C259.44332528 4.31820154 259.44332528 4.31820154 259.44430923 6.73361969 C259.44952473 7.65250143 259.45474022 8.57138316 259.46011376 9.5181098 C259.45565232 10.53423928 259.45119088 11.55036876 259.44659424 12.59729004 C259.44971422 13.67156203 259.4528342 14.74583402 259.45604873 15.8526597 C259.46406847 19.47637213 259.45768961 23.09991894 259.45141602 26.72363281 C259.45412411 29.31178384 259.45768402 31.8999341 259.46203613 34.48808289 C259.47094733 40.8024817 259.46900047 47.11683306 259.46321085 53.43123376 C259.45870114 58.56132229 259.45807846 63.69139749 259.46025848 68.82148743 C259.46056495 69.55055901 259.46087142 70.27963059 259.46118717 71.03079525 C259.46182659 72.51171172 259.46247502 73.99262819 259.46313235 75.47354466 C259.4688407 89.37267092 259.46226985 103.27177083 259.45153162 117.17089278 C259.44259565 129.10694302 259.44414755 141.04295437 259.45336914 152.97900391 C259.46406287 166.82708868 259.46829133 180.67515034 259.46214461 194.52323866 C259.46150749 195.99882475 259.46087875 197.47441085 259.46025848 198.94999695 C259.45994993 199.67608655 259.45964138 200.40217615 259.45932348 201.15026847 C259.45759384 206.27647956 259.46051741 211.40267605 259.46521759 216.52888489 C259.47139997 223.42346199 259.46702268 230.31796415 259.45542908 237.21253395 C259.45277416 239.74985951 259.45356164 242.28719124 259.45795441 244.82451439 C259.46337859 248.27449286 259.45661388 251.72423137 259.44659424 255.17419434 C259.45105568 256.19032382 259.45551713 257.20645329 259.46011376 258.25337458 C259.45489827 259.17225631 259.44968277 260.09113805 259.44430923 261.03786469 C259.44398453 261.83495267 259.44365983 262.63204066 259.44332528 263.45328283 C259.19262695 265.38574219 259.19262695 265.38574219 257.19262695 267.38574219 C254.87756348 267.63970947 254.87756348 267.63970947 251.94848633 267.64453125 C250.30668396 267.65398773 250.30668396 267.65398773 248.63171387 267.66363525 C247.44525269 267.65958679 246.2587915 267.65553833 245.03637695 267.65136719 C243.82316772 267.65328064 242.6099585 267.65519409 241.35998535 267.65716553 C238.79101352 267.65852853 236.22203483 267.65482411 233.65307617 267.64648438 C229.70907192 267.63578679 225.7655232 267.64637612 221.8215332 267.65917969 C219.33064678 267.65785811 216.83976063 267.65529577 214.34887695 267.65136719 C212.56918518 267.65743988 212.56918518 267.65743988 210.75354004 267.66363525 C209.65900513 267.65733093 208.56447021 267.65102661 207.43676758 267.64453125 C205.98687439 267.64214447 205.98687439 267.64214447 204.50769043 267.63970947 C202.19262695 267.38574219 202.19262695 267.38574219 200.19262695 265.38574219 C199.9465313 262.51592827 199.9465313 262.51592827 199.95211792 258.76730347 C199.95040907 258.07955782 199.94870022 257.39181217 199.94693959 256.68322575 C199.94363274 254.36765157 199.95466777 252.0523641 199.96557617 249.73681641 C199.96614003 248.08137011 199.96582423 246.4259233 199.96469116 244.77047729 C199.96411565 240.26656363 199.97590195 235.76275578 199.98983908 231.25886679 C200.00231348 226.55565008 200.00351433 221.85243114 200.00588989 217.14920044 C200.01211436 208.23858619 200.02853822 199.32802083 200.04858887 190.41742814 C200.07091784 180.27489718 200.08193374 170.13236393 200.09197974 159.98981452 C200.11290364 139.12176309 200.14809835 118.25375571 200.19262695 97.38574219 C199.53262695 97.38574219 198.87262695 97.38574219 198.19262695 97.38574219 C197.93118896 98.1042334 197.66975098 98.82272461 197.40039062 99.56298828 C196.14506835 102.49689491 194.65640928 104.90868614 192.8684082 107.54980469 C192.18174072 108.57074219 191.49507324 109.59167969 190.78759766 110.64355469 C190.41768707 111.18915039 190.04777649 111.73474609 189.66665649 112.296875 C187.62338188 115.31178008 185.59674997 118.33786541 183.56762695 121.36230469 C182.91707085 122.33070282 182.91707085 122.33070282 182.25337219 123.31866455 C177.11689148 130.97233887 172.06111657 138.67876726 167.00512695 146.38574219 C166.04220658 147.8524102 165.0792343 149.31904414 164.11621094 150.78564453 C159.53999472 157.75598686 154.96756975 164.72881271 150.39610291 171.70227051 C148.29344092 174.90912025 146.18969937 178.11526093 144.08578491 181.32128906 C142.60311982 183.58163282 141.12208912 185.84304142 139.64111328 188.10449219 C138.72868157 189.49517267 137.81616949 190.88580044 136.90356445 192.27636719 C136.49932755 192.89465393 136.09509064 193.51294067 135.67860413 194.14996338 C132.94919365 198.30372464 130.10160455 202.35554919 127.19262695 206.38574219 C125.02856445 206.37792969 125.02856445 206.37792969 122.19262695 205.38574219 C120.03715915 203.00320728 118.47426783 200.25392375 116.81762695 197.51074219 C115.6634105 195.66962202 114.50698287 193.82988703 113.34887695 191.99121094 C112.69790039 190.95013184 112.04692383 189.90905273 111.3762207 188.83642578 C107.60522289 182.84534202 103.68025083 176.9530742 99.78225708 171.04425049 C97.29934121 167.27908367 94.82263004 163.50983791 92.3449707 159.74121094 C91.3252821 158.19091441 90.30558806 156.64062146 89.28588867 155.09033203 C86.17054527 150.35302267 83.0583075 145.6136777 79.9465332 140.87402344 C78.4161848 138.54353101 76.88579972 136.21306267 75.35540771 133.88259888 C74.39092758 132.41369295 73.42660612 130.94468282 72.46246338 129.47555542 C67.52269148 121.94885067 62.57132107 114.43002107 57.5871582 106.93261719 C57.15972824 106.28810608 56.73229828 105.64359497 56.29191589 104.97955322 C54.42313915 102.04029313 54.42313915 102.04029313 52.19262695 99.38574219 C52.18931681 100.23941816 52.18600666 101.09309414 52.18259621 101.97263908 C52.10146769 122.71957 52.00940887 143.46642711 51.90509987 164.21325493 C51.8549225 174.24615826 51.80848028 184.27905321 51.77075195 194.31201172 C51.73786853 203.05408427 51.69805774 211.79609273 51.6498369 220.53809464 C51.62453547 225.16931338 51.60276507 229.8004894 51.58928299 234.43175888 C51.57649554 238.78687716 51.55447743 243.14184921 51.52524376 247.49688721 C51.51614191 249.09891305 51.51047171 250.70096247 51.50841331 252.30301285 C51.50510905 254.48325362 51.48968246 256.66307515 51.47109985 258.8432312 C51.46280372 260.67667745 51.46280372 260.67667745 51.45433998 262.54716301 C51.19262695 265.38574219 51.19262695 265.38574219 49.19262695 267.38574219 C46.87756348 267.63970947 46.87756348 267.63970947 43.94848633 267.64453125 C42.30668396 267.65398773 42.30668396 267.65398773 40.63171387 267.66363525 C39.44525269 267.65958679 38.2587915 267.65553833 37.03637695 267.65136719 C35.82316772 267.65328064 34.6099585 267.65519409 33.35998535 267.65716553 C30.79101352 267.65852853 28.22203483 267.65482411 25.65307617 267.64648438 C21.70907192 267.63578679 17.7655232 267.64637612 13.8215332 267.65917969 C11.33064678 267.65785811 8.83976063 267.65529577 6.34887695 267.65136719 C4.56918518 267.65743988 4.56918518 267.65743988 2.75354004 267.66363525 C1.65900513 267.65733093 0.56447021 267.65102661 -0.56323242 267.64453125 C-2.01312561 267.64214447 -2.01312561 267.64214447 -3.49230957 267.63970947 C-5.80737305 267.38574219 -5.80737305 267.38574219 -7.80737305 265.38574219 C-8.05807137 263.45328283 -8.05807137 263.45328283 -8.05905533 261.03786469 C-8.06427082 260.11898295 -8.06948632 259.20010121 -8.07485986 258.25337458 C-8.07039841 257.2372451 -8.06593697 256.22111562 -8.06134033 255.17419434 C-8.06446031 254.09992235 -8.06758029 253.02565036 -8.07079482 251.91882467 C-8.07881456 248.29511225 -8.07243571 244.67156543 -8.06616211 241.04785156 C-8.06887021 238.45970053 -8.07243011 235.87155028 -8.07678223 233.28340149 C-8.08569342 226.96900268 -8.08374656 220.65465131 -8.07795694 214.34025061 C-8.07344723 209.21016208 -8.07282455 204.08008689 -8.07500458 198.94999695 C-8.07531104 198.22092537 -8.07561751 197.49185379 -8.07593326 196.74068913 C-8.07657269 195.25977265 -8.07722111 193.77885618 -8.07787845 192.29793972 C-8.0835868 178.39881346 -8.07701594 164.49971354 -8.06627771 150.6005916 C-8.05734174 138.66454136 -8.05889364 126.72853001 -8.06811523 114.79248047 C-8.07880897 100.9443957 -8.08303743 87.09633404 -8.07689071 73.24824572 C-8.07625358 71.77265962 -8.07562484 70.29707353 -8.07500458 68.82148743 C-8.07454175 67.73235303 -8.07454175 67.73235303 -8.07406957 66.62121591 C-8.07233994 61.49500481 -8.07526351 56.36880832 -8.07996368 51.24259949 C-8.08614607 44.34802238 -8.08176878 37.45352022 -8.07017517 30.55895042 C-8.06752026 28.02162486 -8.06830773 25.48429314 -8.0727005 22.94696999 C-8.07812469 19.49699152 -8.07135997 16.04725301 -8.06134033 12.59729004 C-8.06580178 11.58116056 -8.07026322 10.56503108 -8.07485986 9.5181098 C-8.06964436 8.59922806 -8.06442887 7.68034633 -8.05905533 6.73361969 C-8.05873062 5.9365317 -8.05840592 5.13944371 -8.05807137 4.31820154 C-7.44671796 -0.39429747 -3.89821774 0.09319481 0 0 Z " fill="#00334D" transform="translate(1657.807373046875,350.6142578125)"/>
<path d="M0 0 C2.09834194 -0.37752342 2.09834194 -0.37752342 4.74424744 -0.38095093 C6.24697456 -0.39364014 6.24697456 -0.39364014 7.78005981 -0.40658569 C8.88380951 -0.400513 9.9875592 -0.39444031 11.12475586 -0.38818359 C12.28446396 -0.39344055 13.44417206 -0.39869751 14.63902283 -0.40411377 C18.49776452 -0.41738181 22.35609735 -0.40854169 26.21484375 -0.3984375 C28.90174187 -0.3991056 31.58863265 -0.40336647 34.27552795 -0.40713501 C39.92746405 -0.41260334 45.57928288 -0.40538622 51.23120117 -0.39111328 C57.71794744 -0.37491868 64.20440886 -0.37997355 70.69114774 -0.3965925 C76.28466906 -0.41033857 81.87810593 -0.41205992 87.47163874 -0.40427649 C90.80062099 -0.39965369 94.12936656 -0.40003765 97.45835686 -0.40888596 C131.25516674 -0.47889747 161.35196862 4.39807281 186.875 28.5 C204.72138602 47.44530142 210.76676755 72.53686767 210.25 97.89453125 C209.43419128 119.38701198 202.28528349 138.76072209 188 155 C187.00033203 156.14275391 187.00033203 156.14275391 185.98046875 157.30859375 C166.81090411 177.82963048 136.55313799 186.304151 109.23291016 187.31616211 C101.78117161 187.51048597 94.32886772 187.57356117 86.875 187.625 C83.01841751 187.6615325 79.16193571 187.70199405 75.30545044 187.74765015 C72.92503867 187.77483848 70.54455187 187.7962063 68.16403198 187.81118774 C67.10427155 187.82144989 66.04451111 187.83171204 64.95263672 187.84228516 C64.01733124 187.84878082 63.08202576 187.85527649 62.11837769 187.86196899 C60.01497913 187.76514297 60.01497913 187.76514297 59 189 C58.88573607 191.36172345 58.83518863 193.69542326 58.82641602 196.05834961 C58.819729 196.79655441 58.81304199 197.53475922 58.80615234 198.29533386 C58.79207073 199.90336879 58.78018667 201.51142407 58.77020454 203.11948967 C58.7538469 205.6615678 58.73061211 208.20349484 58.70530701 210.74549866 C58.63438214 217.97470627 58.57434573 225.20397561 58.52319336 232.43334961 C58.49145877 236.85012102 58.45019717 241.26671961 58.40299797 245.68335152 C58.38694385 247.37027448 58.37463812 249.05723731 58.36609077 250.74421501 C58.35398059 253.1004078 58.32984981 255.45619195 58.30297852 257.81225586 C58.30238937 258.51415039 58.30180023 259.21604492 58.30119324 259.93920898 C58.22789562 264.77210438 58.22789562 264.77210438 56 267 C53.69166565 267.26069641 53.69166565 267.26069641 50.77172852 267.2746582 C49.6804213 267.28419022 48.58911407 267.29372223 47.46473694 267.30354309 C46.28141281 267.30263168 45.09808868 267.30172028 43.87890625 267.30078125 C42.06264992 267.30720894 42.06264992 267.30720894 40.20970154 267.31376648 C37.64493435 267.31951835 35.08015084 267.32000377 32.51538086 267.31567383 C28.58223743 267.31251585 24.6498471 267.33595679 20.71679688 267.36132812 C18.22916762 267.36360114 15.74153633 267.3643046 13.25390625 267.36328125 C12.07260635 267.372491 10.89130646 267.38170074 9.67420959 267.39118958 C8.57975021 267.38496078 7.48529083 267.37873199 6.35766602 267.37231445 C4.91110374 267.37325859 4.91110374 267.37325859 3.43531799 267.3742218 C0.49908719 266.92302751 -0.19449308 266.30942172 -2 264 C-2.37489682 261.95731688 -2.37489682 261.95731688 -2.37473011 259.56310272 C-2.38193665 258.64981343 -2.3891432 257.73652413 -2.39656812 256.79555941 C-2.38919383 255.79080678 -2.38181955 254.78605416 -2.3742218 253.75085449 C-2.37819621 252.68460075 -2.38217061 251.61834701 -2.38626546 250.51978254 C-2.3959283 246.92907038 -2.38404602 243.3387483 -2.37231445 239.74804688 C-2.3747411 237.18107455 -2.37845917 234.61410316 -2.38337708 232.0471344 C-2.39287606 225.78799073 -2.38625567 219.52896216 -2.37411413 213.26982701 C-2.36050797 205.98486947 -2.36213077 198.6999395 -2.36424746 191.41497248 C-2.36743896 178.41904002 -2.35576047 165.42316232 -2.33618164 152.42724609 C-2.3171768 139.80906506 -2.31009389 127.19094823 -2.31567383 114.57275391 C-2.32172816 100.841111 -2.3215609 87.10949634 -2.310188 73.37785578 C-2.30898067 71.91434384 -2.30777469 70.45083189 -2.30657005 68.98731995 C-2.30596651 68.26719427 -2.30536298 67.54706859 -2.30474115 66.80512092 C-2.30085765 61.72395412 -2.30125729 56.64279782 -2.3031559 51.56163025 C-2.30549648 44.72612583 -2.29696757 37.89070564 -2.2810955 31.05521965 C-2.27683982 28.54089132 -2.27601066 26.0265546 -2.27878571 23.5122242 C-2.28198968 20.091106 -2.27297074 16.67023797 -2.26069641 13.24914551 C-2.26447573 12.24439289 -2.26825506 11.23964026 -2.27214891 10.20444059 C-2.26631671 9.2911513 -2.26048452 8.37786201 -2.25447559 7.43689728 C-2.25360882 6.64680661 -2.25274204 5.85671594 -2.251849 5.04268312 C-2 3 -2 3 0 0 Z M58 56 C57.80184816 58.42830061 57.72716733 60.74254019 57.74121094 63.171875 C57.7377063 63.91022583 57.73420166 64.64857666 57.73059082 65.40930176 C57.72176951 67.85629608 57.72762396 70.3030026 57.734375 72.75 C57.73302846 74.44628963 57.73108803 76.14257888 57.72857666 77.83886719 C57.72562486 81.3965217 57.72992481 84.95407588 57.73925781 88.51171875 C57.75065241 93.07851141 57.74409323 97.645069 57.73211288 102.21185303 C57.72489578 105.71535014 57.72718152 109.21879126 57.73236847 112.72229004 C57.73370538 114.40645373 57.7320558 116.09062246 57.72740936 117.77478027 C57.72234653 120.12603274 57.73005067 122.47690123 57.74121094 124.828125 C57.73716248 125.52844849 57.73311401 126.22877197 57.72894287 126.95031738 C57.66239064 130.91901624 57.66239064 130.91901624 60 134 C62.2111898 134.31289997 62.2111898 134.31289997 64.79418945 134.2746582 C66.29264153 134.28895622 66.29264153 134.28895622 67.82136536 134.30354309 C68.9076976 134.30263168 69.99402985 134.30172028 71.11328125 134.30078125 C72.23381393 134.30506638 73.35434662 134.3093515 74.50883484 134.31376648 C76.89040451 134.31952248 79.27199176 134.32000076 81.65356445 134.31567383 C85.25959388 134.31254589 88.86477718 134.33584542 92.47070312 134.36132812 C94.78906147 134.3636045 97.10742201 134.36430305 99.42578125 134.36328125 C100.48984695 134.372491 101.55391266 134.38170074 102.65022278 134.39118958 C116.88830814 134.30538998 128.74418035 131.00992207 139.3125 121.25 C146.59611656 113.51023776 149.85607985 104.19600726 150.06640625 93.6796875 C149.69606542 83.46725862 147.44393752 74.28906368 140.375 66.625 C125.37922033 53.16796638 107.26802677 53.52626402 88.26416016 53.66381836 C84.71624591 53.68772747 81.16906979 53.68432187 77.62109375 53.67773438 C75.367183 53.68330208 73.1132754 53.6904062 70.859375 53.69921875 C69.79805359 53.69830734 68.73673218 53.69739594 67.64324951 53.69645691 C66.66752991 53.70598892 65.6918103 53.71552094 64.68652344 53.7253418 C63.39751129 53.73225288 63.39751129 53.73225288 62.0824585 53.73930359 C59.77958218 53.81122089 59.77958218 53.81122089 58 56 Z " fill="#00334D" transform="translate(954,351)"/>
<path d="M0 0 C0.73071716 -0.00067474 1.46143433 -0.00134949 2.21429443 -0.00204468 C29.05993551 0.03725596 53.30681698 4.59774988 73.0625 24.25 C73.68769531 24.84039062 74.31289062 25.43078125 74.95703125 26.0390625 C95.99202274 47.59636755 94.37987638 82.0780509 94.36328125 109.80859375 C94.36559912 111.84327634 94.36910281 113.87795468 94.372688 115.91263539 C94.38368226 122.27323662 94.38427277 128.6337787 94.37817383 134.99438477 C94.37208962 141.54538887 94.38457953 148.09618062 94.4057439 154.64714855 C94.42333456 160.30102857 94.42936682 165.95484068 94.42610615 171.60874707 C94.42429518 174.97385271 94.42691434 178.33880539 94.44082069 181.70388603 C94.45309433 185.43744575 94.4464519 189.1705017 94.43481445 192.90405273 C94.44245819 194.01512894 94.45010193 195.12620514 94.45797729 196.27095032 C94.45096298 197.28400238 94.44394867 198.29705444 94.4367218 199.34080505 C94.43688954 200.22170524 94.43705729 201.10260542 94.43723011 202.01019955 C93.98265351 204.7272507 93.24354018 205.61383123 91.0625 207.25 C88.74107361 207.6242218 88.74107361 207.6242218 85.98022461 207.62231445 C84.42862892 207.63165764 84.42862892 207.63165764 82.84568787 207.64118958 C81.73000931 207.63197983 80.61433075 207.62277008 79.46484375 207.61328125 C78.3196376 207.61377975 77.17443146 207.61427826 75.99452209 207.61479187 C73.57274643 207.61245032 71.15096839 207.60271709 68.72924805 207.58618164 C65.01133602 207.56257199 61.29413987 207.56562244 57.57617188 207.57226562 C55.2265582 207.56668968 52.87694756 207.55958033 50.52734375 207.55078125 C49.40964096 207.55169266 48.29193817 207.55260406 47.1403656 207.55354309 C46.10912064 207.54401108 45.07787567 207.53447906 44.01538086 207.5246582 C43.10509628 207.52005081 42.19481171 207.51544342 41.25694275 207.51069641 C39.0625 207.25 39.0625 207.25 37.0625 205.25 C36.75574768 202.35032243 36.55076629 199.53216822 36.4375 196.625 C36.37949219 195.42230469 36.37949219 195.42230469 36.3203125 194.1953125 C36.22596069 192.21392444 36.14313785 190.23199355 36.0625 188.25 C35.19625 189.054375 34.33 189.85875 33.4375 190.6875 C14.17236686 207.07839957 -8.53579198 212.88908048 -33.5078125 210.9765625 C-51.78863486 208.95384103 -70.06185202 202.53100383 -81.91015625 187.796875 C-92.84410615 172.66113119 -97.07076771 155.77090981 -94.40625 137.171875 C-91.95268749 122.12464995 -85.62921443 107.54798862 -72.9375 98.3125 C-55.1747088 85.81972897 -35.39257616 81.87193955 -14.01245117 81.93432617 C-11.77016825 81.93747171 -9.52922911 81.91398573 -7.28710938 81.88867188 C4.59694661 81.83677501 15.85085982 83.38222814 27.36791992 86.3425293 C30.47860917 87.10658348 32.89512739 87.44796079 36.0625 87.25 C36.74245555 78.41057791 34.53789439 69.81630291 28.9375 62.8125 C19.73593158 53.31474375 6.32625552 51.28116359 -6.3125 51.0625 C-21.07451505 51.24995416 -34.28620095 53.56305733 -48.43481445 57.86157227 C-49.45148193 58.16764404 -50.46814941 58.47371582 -51.515625 58.7890625 C-52.41700195 59.06959473 -53.31837891 59.35012695 -54.24707031 59.63916016 C-57.21713885 60.31348969 -59.90165306 60.35416576 -62.9375 60.25 C-66.27524427 52.29926296 -69.0368689 44.20227864 -71.6875 36 C-72.09871094 34.75992188 -72.50992187 33.51984375 -72.93359375 32.2421875 C-73.32160156 31.04335938 -73.70960937 29.84453125 -74.109375 28.609375 C-74.4609668 27.53139648 -74.81255859 26.45341797 -75.17480469 25.34277344 C-75.95237746 22.18967105 -76.07946261 19.48359273 -75.9375 16.25 C-69.99672603 13.10000822 -64.09691284 10.76650867 -57.6875 8.75 C-56.73456055 8.44884277 -55.78162109 8.14768555 -54.79980469 7.83740234 C-36.67490371 2.27179433 -18.91833709 0.01573727 0 0 Z M-32.875 129.0625 C-37.48289834 136.18379743 -38.93584888 143.1525574 -37.57421875 151.46875 C-35.84147682 158.35256826 -31.67635047 162.29056583 -25.9375 166.25 C-13.62002734 172.69882174 1.18628984 170.89940716 14.0625 167.25 C23.30762387 163.53575124 31.26785719 157.70491062 35.5 148.5 C36.06187067 147.09910273 36.58600153 145.68218749 37.0625 144.25 C37.35640625 143.36828125 37.35640625 143.36828125 37.65625 142.46875 C38.26288507 139.15558923 38.16621867 135.85456562 38.125 132.5 C38.12048828 131.80261719 38.11597656 131.10523438 38.11132812 130.38671875 C38.0996002 128.67444197 38.08166653 126.96220967 38.0625 125.25 C17.65721468 115.09888584 -15.66985436 110.79154888 -32.875 129.0625 Z " fill="#00334D" transform="translate(1280.9375,410.75)"/>
<path d="M0 0 C0.73071716 -0.00067474 1.46143433 -0.00134949 2.21429443 -0.00204468 C29.05993551 0.03725596 53.30681698 4.59774988 73.0625 24.25 C73.68769531 24.84039062 74.31289062 25.43078125 74.95703125 26.0390625 C95.99202274 47.59636755 94.37987638 82.0780509 94.36328125 109.80859375 C94.36559912 111.84327634 94.36910281 113.87795468 94.372688 115.91263539 C94.38368226 122.27323662 94.38427277 128.6337787 94.37817383 134.99438477 C94.37208962 141.54538887 94.38457953 148.09618062 94.4057439 154.64714855 C94.42333456 160.30102857 94.42936682 165.95484068 94.42610615 171.60874707 C94.42429518 174.97385271 94.42691434 178.33880539 94.44082069 181.70388603 C94.45309433 185.43744575 94.4464519 189.1705017 94.43481445 192.90405273 C94.44245819 194.01512894 94.45010193 195.12620514 94.45797729 196.27095032 C94.45096298 197.28400238 94.44394867 198.29705444 94.4367218 199.34080505 C94.43688954 200.22170524 94.43705729 201.10260542 94.43723011 202.01019955 C93.98265351 204.7272507 93.24354018 205.61383123 91.0625 207.25 C88.74107361 207.6242218 88.74107361 207.6242218 85.98022461 207.62231445 C84.42862892 207.63165764 84.42862892 207.63165764 82.84568787 207.64118958 C81.73000931 207.63197983 80.61433075 207.62277008 79.46484375 207.61328125 C78.3196376 207.61377975 77.17443146 207.61427826 75.99452209 207.61479187 C73.57274643 207.61245032 71.15096839 207.60271709 68.72924805 207.58618164 C65.01133602 207.56257199 61.29413987 207.56562244 57.57617188 207.57226562 C55.2265582 207.56668968 52.87694756 207.55958033 50.52734375 207.55078125 C49.40964096 207.55169266 48.29193817 207.55260406 47.1403656 207.55354309 C46.10912064 207.54401108 45.07787567 207.53447906 44.01538086 207.5246582 C43.10509628 207.52005081 42.19481171 207.51544342 41.25694275 207.51069641 C39.0625 207.25 39.0625 207.25 37.0625 205.25 C36.75574768 202.35032243 36.55076629 199.53216822 36.4375 196.625 C36.37949219 195.42230469 36.37949219 195.42230469 36.3203125 194.1953125 C36.22596069 192.21392444 36.14313785 190.23199355 36.0625 188.25 C35.19625 189.054375 34.33 189.85875 33.4375 190.6875 C14.17236686 207.07839957 -8.53579198 212.88908048 -33.5078125 210.9765625 C-51.85215753 208.94681242 -69.83287696 202.49370654 -81.875 187.90234375 C-92.87698798 172.94058855 -97.03593746 155.52778546 -94.40625 137.171875 C-91.95268749 122.12464995 -85.62921443 107.54798862 -72.9375 98.3125 C-55.1747088 85.81972897 -35.39257616 81.87193955 -14.01245117 81.93432617 C-11.77016825 81.93747171 -9.52922911 81.91398573 -7.28710938 81.88867188 C4.59694661 81.83677501 15.85085982 83.38222814 27.36791992 86.3425293 C30.47860917 87.10658348 32.89512739 87.44796079 36.0625 87.25 C36.56738054 78.16215029 34.71130202 70.21066995 28.8515625 63.06640625 C19.26775065 53.33611692 6.81449284 51.30391596 -6.3125 51.0625 C-21.07451505 51.24995416 -34.28620095 53.56305733 -48.43481445 57.86157227 C-49.45148193 58.16764404 -50.46814941 58.47371582 -51.515625 58.7890625 C-52.41700195 59.06959473 -53.31837891 59.35012695 -54.24707031 59.63916016 C-57.21713885 60.31348969 -59.90165306 60.35416576 -62.9375 60.25 C-66.27524427 52.29926296 -69.0368689 44.20227864 -71.6875 36 C-72.09871094 34.75992188 -72.50992188 33.51984375 -72.93359375 32.2421875 C-73.32160156 31.04335938 -73.70960938 29.84453125 -74.109375 28.609375 C-74.4609668 27.53139648 -74.81255859 26.45341797 -75.17480469 25.34277344 C-75.95237746 22.18967105 -76.07946261 19.48359273 -75.9375 16.25 C-69.99672603 13.10000822 -64.09691284 10.76650867 -57.6875 8.75 C-56.73456055 8.44884277 -55.78162109 8.14768555 -54.79980469 7.83740234 C-36.67490371 2.27179433 -18.91833709 0.01573727 0 0 Z M-32.875 129.0625 C-37.48289834 136.18379743 -38.93584888 143.1525574 -37.57421875 151.46875 C-35.84147682 158.35256826 -31.67635047 162.29056583 -25.9375 166.25 C-13.62002734 172.69882174 1.18628984 170.89940716 14.0625 167.25 C23.30762387 163.53575124 31.26785719 157.70491062 35.5 148.5 C36.06187067 147.09910273 36.58600153 145.68218749 37.0625 144.25 C37.35640625 143.36828125 37.35640625 143.36828125 37.65625 142.46875 C38.26288507 139.15558923 38.16621867 135.85456562 38.125 132.5 C38.12048828 131.80261719 38.11597656 131.10523438 38.11132812 130.38671875 C38.0996002 128.67444197 38.08166653 126.96220967 38.0625 125.25 C17.65721468 115.09888584 -15.66985436 110.79154888 -32.875 129.0625 Z " fill="#00334D" transform="translate(2504.9375,410.75)"/>
<path d="M0 0 C0.75600494 -0.00067474 1.51200989 -0.00134949 2.29092407 -0.00204468 C28.43792828 0.03501183 52.7629933 4.77471976 72.5 23.25 C89.61024274 41.02179869 93.84232208 65.86401072 93.75878906 89.64941406 C93.76404602 91.53497765 93.76404602 91.53497765 93.76940918 93.45863342 C93.77662661 96.8566783 93.77504665 100.25447478 93.76865101 103.65250492 C93.76353617 107.2242926 93.76829629 110.79607073 93.77142334 114.36785889 C93.77504152 120.34893675 93.77031481 126.32996487 93.76074219 132.31103516 C93.74980182 139.2266128 93.75343199 146.14207301 93.764395 153.05764794 C93.77345823 159.01376103 93.7747597 164.96983874 93.76951766 170.92595649 C93.7664003 174.47605047 93.76598341 178.02608908 93.77259064 181.5761795 C93.77941914 185.51860679 93.76996754 189.46090088 93.75878906 193.40332031 C93.76283752 194.5803804 93.76688599 195.75744049 93.77105713 196.97016907 C93.76541748 198.03811203 93.75977783 199.10605499 93.75396729 200.20635986 C93.75283621 201.60325483 93.75283621 201.60325483 93.75168228 203.0283699 C93.5 205.25 93.5 205.25 91.5 207.25 C89.26086426 207.50396729 89.26086426 207.50396729 86.43945312 207.50878906 C84.85771301 207.51824554 84.85771301 207.51824554 83.24401855 207.52789307 C82.10130493 207.5238446 80.95859131 207.51979614 79.78125 207.515625 C78.02802429 207.51849518 78.02802429 207.51849518 76.23937988 207.52142334 C73.76456487 207.52278626 71.28974274 207.51908241 68.81494141 207.51074219 C65.01578795 207.50004446 61.21710741 207.51063418 57.41796875 207.5234375 C55.01822812 207.52211592 52.61848778 207.51955357 50.21875 207.515625 C48.50467957 207.52169769 48.50467957 207.52169769 46.75598145 207.52789307 C45.70148804 207.52158875 44.64699463 207.51528442 43.56054688 207.50878906 C42.6294812 207.50719788 41.69841553 207.50560669 40.73913574 207.50396729 C38.5 207.25 38.5 207.25 36.5 205.25 C36.35482256 202.3406442 36.31369204 199.530054 36.375 196.625 C36.38402344 195.82320312 36.39304687 195.02140625 36.40234375 194.1953125 C36.42593777 192.21341477 36.46180935 190.23167019 36.5 188.25 C32.99844954 190.53297111 29.69121815 192.86669273 26.5 195.5625 C13.99867747 205.30433328 -1.69066066 210.68273821 -17.5 211.25 C-18.48097656 211.28996094 -19.46195313 211.32992187 -20.47265625 211.37109375 C-41.74235398 211.81044352 -62.523116 206.9925978 -78.3125 192.0625 C-92.79930059 176.82313834 -95.00963574 160.88024631 -94.7734375 140.74609375 C-94.31668468 124.93385382 -87.88293298 111.46888784 -76.37109375 100.5703125 C-71.15200464 96.35243641 -65.48344937 93.2486984 -59.5 90.25 C-58.70335937 89.84007812 -57.90671875 89.43015625 -57.0859375 89.0078125 C-33.3999104 78.21100156 -0.24749735 79.26708768 24.46240234 85.79248047 C28.10586036 86.6105778 31.78559548 86.90371106 35.5 87.25 C36.1010514 78.0839661 34.18613838 70.16983328 28.375 62.875 C20.12434994 54.23483427 8.03948417 51.61836991 -3.48828125 51.12109375 C-19.47214974 50.84455623 -33.791653 53.2512594 -49.08520508 57.86157227 C-50.10509521 58.16764404 -51.12498535 58.47371582 -52.17578125 58.7890625 C-53.5357019 59.20986084 -53.5357019 59.20986084 -54.9230957 59.63916016 C-57.68329558 60.29344913 -59.69080976 60.7317419 -62.5 60.25 C-65.44552561 56.60976258 -66.73706884 52.15219471 -68.19921875 47.75390625 C-68.4391304 47.04274155 -68.67904205 46.33157684 -68.92622375 45.59886169 C-69.42920576 44.10135198 -69.92908665 42.60279746 -70.42602539 41.10327148 C-71.18515507 38.81955435 -71.96013435 36.54163721 -72.73632812 34.26367188 C-73.22493128 32.8024083 -73.71259322 31.3408296 -74.19921875 29.87890625 C-74.54601936 28.86613365 -74.54601936 28.86613365 -74.89982605 27.832901 C-76.20248185 23.84785779 -76.73861055 20.43682511 -76.5 16.25 C-70.55922603 13.10000822 -64.65941284 10.76650867 -58.25 8.75 C-57.29706055 8.44884277 -56.34412109 8.14768555 -55.36230469 7.83740234 C-37.04977881 2.21418041 -19.09516445 0.01533289 0 0 Z M-32.5 128.25 C-37.32240166 135.41471103 -39.23489349 142.15228506 -38.10546875 150.7890625 C-36.59330236 156.93528718 -32.8512436 161.92033732 -27.5 165.25 C-14.55367317 171.31044494 -0.58208097 172.08545222 13.05078125 167.3671875 C22.37521623 163.3866724 30.56816368 157.28304758 35.5 148.25 C37.38357412 142.94880687 37.75669669 138.34882611 37.625 132.8125 C37.61597656 132.08095703 37.60695313 131.34941406 37.59765625 130.59570312 C37.57436153 128.81365702 37.5385019 127.03178241 37.5 125.25 C17.35420746 115.22797694 -14.86943432 111.10917225 -32.5 128.25 Z " fill="#00334D" transform="translate(2062.5,410.75)"/>
<path d="M0 0 C1.13134872 -0.00953201 2.26269745 -0.01906403 3.42832947 -0.02888489 C4.65540115 -0.02797348 5.88247284 -0.02706207 7.14672852 -0.02612305 C8.40195816 -0.03040817 9.65718781 -0.0346933 10.95045471 -0.03910828 C13.60952683 -0.04486078 16.26821194 -0.04627639 18.92724609 -0.04101562 C22.33495313 -0.03522228 25.74211642 -0.05214571 29.14973354 -0.0753603 C32.39872799 -0.09363528 35.6476919 -0.08991239 38.89672852 -0.08862305 C40.7342997 -0.10243767 40.7342997 -0.10243767 42.60899353 -0.11653137 C43.74349442 -0.11030258 44.8779953 -0.10407379 46.046875 -0.09765625 C47.04677963 -0.09828568 48.04668427 -0.0989151 49.07688904 -0.0995636 C52.11151178 0.352651 52.68180143 0.92953027 54.58813477 3.2746582 C55.62323856 5.65285587 55.62323856 5.65285587 56.56788635 8.51930237 C57.1124498 10.14929169 57.1124498 10.14929169 57.66801453 11.81221008 C58.25024529 13.60068611 58.25024529 13.60068611 58.84423828 15.42529297 C59.26428405 16.69367268 59.68514189 17.9617837 60.10675049 19.22964478 C61.01227376 21.95839747 61.91211413 24.68893525 62.80761909 27.4209919 C64.22307562 31.73892627 65.6515966 36.05246664 67.08201599 40.36546326 C69.85753639 48.74028348 72.61948368 57.11954895 75.38021851 65.49925232 C78.89655513 76.16993066 82.41962438 86.83837517 85.95355171 97.503241 C87.37468253 101.79345147 88.78948773 106.08568141 90.19940007 110.37959111 C91.07642194 113.04679869 91.95833154 115.71237134 92.84153748 118.37753677 C93.44638041 120.20788827 94.04516051 122.04023973 94.64378357 123.87263489 C95.00400604 124.95647461 95.36422852 126.04031433 95.73536682 127.15699768 C96.04672357 128.102548 96.35808031 129.04809832 96.67887211 130.02230167 C97.47834492 132.42553109 97.47834492 132.42553109 99.58813477 134.2746582 C99.76256607 133.71822128 99.93699738 133.16178436 100.11671448 132.58848572 C109.71397388 101.98521926 119.433787 71.42376885 129.31544113 40.91115189 C130.08831958 38.52408739 130.8605287 36.13680723 131.63259888 33.7494812 C132.85541378 29.96912031 134.08022718 26.18941279 135.30670357 22.41023827 C135.76009684 21.01253629 136.21296324 19.61466328 136.66526604 18.21660805 C137.28697738 16.29563921 137.9111321 14.37546168 138.53540039 12.45532227 C138.88526001 11.37704163 139.23511963 10.29876099 139.59558105 9.18780518 C142.13852088 1.72427208 142.13852088 1.72427208 143.58813477 0.2746582 C145.32103463 0.16532893 147.05837432 0.12557898 148.79467773 0.11352539 C150.46178299 0.09911407 150.46178299 0.09911407 152.16256714 0.08441162 C153.97810593 0.0780368 153.97810593 0.0780368 155.83032227 0.0715332 C157.06477081 0.06583313 158.29921936 0.06013306 159.57107544 0.05426025 C162.18889504 0.0447927 164.80672665 0.03826934 167.42456055 0.03442383 C170.11350001 0.0300296 172.80212029 0.01610647 175.4909668 -0.0065918 C179.35418523 -0.03695481 183.21699802 -0.04761361 187.08032227 -0.0534668 C188.286633 -0.0658136 189.49294373 -0.0781604 190.73580933 -0.09088135 C191.85351715 -0.08788025 192.97122498 -0.08487915 194.12280273 -0.08178711 C195.10795868 -0.08543274 196.09311462 -0.08907837 197.10812378 -0.09283447 C199.58813477 0.2746582 199.58813477 0.2746582 201.49221802 1.42193604 C202.58813477 3.2746582 202.58813477 3.2746582 202.40512085 6.09512329 C201.60491737 9.20934391 200.65841356 12.14196436 199.51635742 15.1472168 C199.08195343 16.29870209 198.64754944 17.45018738 198.19998169 18.63656616 C197.71746111 19.89877105 197.23486374 21.16094659 196.75219727 22.4230957 C196.24475875 23.7624713 195.737845 25.10204581 195.23141479 26.44180298 C194.13965509 29.3270613 193.04453702 32.21101336 191.94677734 35.09399414 C190.18553663 39.71979837 188.43197106 44.34848734 186.67993164 48.9777832 C186.07660797 50.57171966 185.47327538 52.16565274 184.86993408 53.75958252 C184.56813484 54.55691048 184.2663356 55.35423843 183.95539093 56.17572784 C183.02556221 58.63142026 182.09499901 61.08683322 181.16424561 63.54217529 C175.60307964 78.21523229 170.08908415 92.90574755 164.58736324 107.60117912 C162.64105244 112.79965988 160.69212925 117.99715524 158.74169922 123.1940918 C157.62146272 126.17926637 156.50125983 129.16445355 155.38110352 132.1496582 C155.10423265 132.88751179 154.82736179 133.62536537 154.54210091 134.38557816 C151.04972749 143.69411567 147.56729707 153.00628968 144.09653282 162.32290649 C141.72461854 168.6892084 139.34676995 175.05327398 136.96491432 181.41586304 C135.55774097 185.175813 134.15366385 188.93684896 132.75756836 192.70092773 C111.08080121 251.12455043 111.08080121 251.12455043 85.58813477 263.2746582 C62.99702922 271.486871 37.08756681 267.88334291 15.58813477 258.2746582 C12.75394193 256.7439549 10.22024308 255.13906826 7.58813477 253.2746582 C8.12123622 247.65211093 9.64526051 243.2767226 12.04516602 238.1887207 C12.38940109 237.44633148 12.73363617 236.70394226 13.08830261 235.9390564 C13.81401376 234.38218127 14.5445902 232.82756563 15.27978516 231.27514648 C16.40354512 228.8934901 17.50125485 226.50093011 18.59790039 224.10668945 C19.3079425 222.59164082 20.01947905 221.07729148 20.73266602 219.5637207 C21.05886429 218.84713287 21.38506256 218.13054504 21.72114563 217.39224243 C24.05862558 212.53701626 24.05862558 212.53701626 26.63793945 211.2590332 C29.74105755 211.28389544 32.18188133 212.45955561 35.02563477 213.6496582 C43.19113134 217.03696733 51.16128715 218.88574263 59.83813477 216.2121582 C63.4429959 214.66618569 65.52182683 212.56939482 67.87329102 209.48168945 C69.9689333 203.01153705 66.52748271 195.83311821 64.11547852 189.87231445 C63.76102158 188.97449249 63.40656464 188.07667053 63.04136658 187.15164185 C61.87792939 184.2100406 60.70173003 181.27371865 59.52563477 178.3371582 C58.70514035 176.26829826 57.88565573 174.19903759 57.06713867 172.12939453 C55.39055461 167.89213448 53.70984598 163.65654726 52.02612305 159.42211914 C48.7940863 151.28446827 45.61389167 143.12680098 42.43826294 134.9670105 C40.8005052 130.76003408 39.15888052 126.55456673 37.51782227 122.34887695 C36.86383125 120.67228957 36.20985989 118.99569452 35.5559082 117.3190918 C32.56759316 109.65812181 29.57784547 101.99771089 26.58822632 94.33724976 C24.93060713 90.08983768 23.27303409 85.8424076 21.61547852 81.5949707 C21.28693375 80.75308701 20.95838898 79.91120331 20.61988831 79.04380798 C18.54928272 73.73786737 16.47888961 68.4318439 14.40872192 63.12573242 C13.69987573 61.30897055 12.99095288 59.49223858 12.2819519 57.67553711 C10.56345289 53.27200476 8.84600358 48.86807004 7.13110352 44.46313477 C4.30976377 37.21970136 1.48060683 29.98065337 -1.41577148 22.7668457 C-2.06171265 21.14963623 -2.06171265 21.14963623 -2.72070312 19.49975586 C-3.48210442 17.59804726 -4.25017823 15.69898783 -5.02685547 13.8034668 C-8.06885181 6.18671466 -8.06885181 6.18671466 -7.41186523 2.2746582 C-4.7925364 -0.34467063 -3.65119154 0.01683747 0 0 Z " fill="#00334D" transform="translate(1407.411865234375,412.725341796875)"/>
<path d="M0 0 C1.13134872 -0.01283524 2.26269745 -0.02567047 3.42832947 -0.03889465 C4.65540115 -0.04628159 5.88247284 -0.05366852 7.14672852 -0.0612793 C9.02957298 -0.07338692 9.02957298 -0.07338692 10.95045471 -0.08573914 C13.60942283 -0.09958798 16.26826658 -0.11060273 18.92724609 -0.11816406 C22.3350355 -0.12924283 25.74217447 -0.16366091 29.14973354 -0.20333576 C32.39866765 -0.23573824 35.64765743 -0.24027473 38.89672852 -0.2487793 C40.7342997 -0.27504143 40.7342997 -0.27504143 42.60899353 -0.30183411 C44.31074486 -0.29744576 44.31074486 -0.29744576 46.046875 -0.29296875 C47.54673195 -0.30176811 47.54673195 -0.30176811 49.07688904 -0.31074524 C51.58813477 0.17700195 51.58813477 0.17700195 53.12093258 1.87175941 C54.72415375 4.39071261 55.6370488 6.71434516 56.57461548 9.54862976 C57.12134666 11.18284882 57.12134666 11.18284882 57.67912292 12.8500824 C58.06884781 14.04037552 58.45857269 15.23066864 58.86010742 16.45703125 C59.28191337 17.72713591 59.70439051 18.99701784 60.12748718 20.26669312 C61.03545791 22.99623576 61.93866524 25.72729157 62.83818436 28.45963097 C64.25945181 32.77674602 65.6912014 37.09033888 67.12435913 41.40351868 C69.38837186 48.22140876 71.64523224 55.04164178 73.89910161 61.86289102 C77.93988357 74.0916007 81.99141025 86.31675005 86.0476402 98.54034358 C87.4715869 102.83246782 88.89193424 107.12576192 90.309376 111.42003858 C90.97791433 113.44418881 91.64776729 115.46789827 92.31819153 117.49142456 C93.13718363 119.96368431 93.95396449 122.43667802 94.76820374 124.9105072 C95.12705154 125.9915271 95.48589935 127.072547 95.85562134 128.18632507 C96.16789988 129.13149837 96.48017841 130.07667166 96.80191994 131.05048656 C97.40267882 133.13088603 97.40267882 133.13088603 98.58813477 134.17700195 C106.51181513 110.74018489 114.16665012 87.21741116 121.77563477 63.67700195 C122.12737133 62.58897026 122.12737133 62.58897026 122.48621368 61.47895813 C123.87182784 57.19260762 125.25662896 52.90599536 126.64080048 48.61917877 C127.31326657 46.53727473 127.98646074 44.45560714 128.659729 42.3739624 C130.64156086 36.24191699 132.61514192 30.10765623 134.55316067 23.96160126 C135.1821037 21.96730158 135.81331865 19.97373463 136.44514465 17.98034668 C137.22285886 15.52291491 137.99564209 13.06391544 138.76274109 10.60314941 C139.27826286 8.97778259 139.27826286 8.97778259 139.80419922 7.31958008 C140.10195755 6.37022583 140.39971588 5.42087158 140.70649719 4.44274902 C141.58813477 2.17700195 141.58813477 2.17700195 143.58813477 0.17700195 C145.94116211 -0.07696533 145.94116211 -0.07696533 148.92407227 -0.08178711 C150.03862793 -0.08809143 151.15318359 -0.09439575 152.30151367 -0.10089111 C153.50984863 -0.09684265 154.71818359 -0.09279419 155.96313477 -0.08862305 C157.81624268 -0.09149323 157.81624268 -0.09149323 159.70678711 -0.09442139 C162.99404883 -0.09613415 166.28112264 -0.08806504 169.56835938 -0.0769043 C171.58608006 -0.07300202 173.60362678 -0.07688975 175.62133789 -0.08374023 C179.48535305 -0.09605809 183.34910904 -0.09460783 187.21313477 -0.08862305 C188.42146973 -0.09267151 189.62980469 -0.09671997 190.87475586 -0.10089111 C191.98931152 -0.09458679 193.10386719 -0.08828247 194.25219727 -0.08178711 C195.72873779 -0.07940033 195.72873779 -0.07940033 197.23510742 -0.07696533 C199.58813477 0.17700195 199.58813477 0.17700195 201.58813477 2.17700195 C201.98672242 6.62054258 201.21032563 9.91499412 199.62988281 14.04956055 C199.19541336 15.20102066 198.76094391 16.35248077 198.31330872 17.53883362 C197.8256338 18.80109101 197.33781045 20.06329106 196.84985352 21.32543945 C196.34050224 22.6648944 195.83207796 24.00470216 195.32450867 25.34483337 C194.22920118 28.23131245 193.12782792 31.11537394 192.02166748 33.99771118 C190.24882253 38.61773301 188.48975644 43.24292266 186.7331543 47.86914062 C184.89037385 52.72077458 183.04693857 57.57215085 181.19909668 62.42185974 C175.29038004 77.9316044 169.45737207 93.46928096 163.63922119 109.01318359 C161.96195129 113.4936824 160.28187545 117.97312589 158.60131836 122.45239258 C153.55679683 135.89971017 148.52002303 149.34981513 143.50872803 162.80955505 C141.5919502 167.95761264 139.6716019 173.1043362 137.7504425 178.25076008 C136.46466309 181.69601412 135.18095775 185.14200805 133.90252686 188.58999634 C124.95980908 212.70425222 124.95980908 212.70425222 120.18969727 223.49731445 C119.88671219 224.18368988 119.58372711 224.87006531 119.27156067 225.57723999 C112.52707508 240.41312065 102.58026542 254.92212277 87.58813477 262.17700195 C64.24931614 270.56159397 38.42408147 268.83135584 15.97485352 258.5168457 C13.1527221 257.11407063 10.35880978 255.6784292 7.58813477 254.17700195 C7.17936372 248.28080386 8.39048104 244.41676265 10.91235352 239.1262207 C11.25563187 238.38620316 11.59891022 237.64618561 11.95259094 236.88374329 C12.67813226 235.33014063 13.4105356 233.77972599 14.14941406 232.23242188 C15.27596651 229.86380445 16.36948602 227.48177206 17.46118164 225.09692383 C18.17213096 223.58494178 18.884958 222.07384092 19.59985352 220.5637207 C19.92402756 219.85229416 20.2482016 219.14086761 20.5821991 218.40788269 C22.08024736 215.32726588 23.15854 213.43213678 26.14013672 211.66137695 C29.68797956 210.95938033 31.80399409 212.06611855 35.08813477 213.48950195 C43.23838055 216.96478199 50.7058017 218.72307409 59.33813477 215.98950195 C63.69158301 213.56161735 66.93320288 211.40841242 68.38037109 206.4777832 C68.63731496 202.39566674 67.55155965 199.38444008 66.03735352 195.67700195 C65.75225922 194.94571075 65.46716492 194.21441956 65.1734314 193.46096802 C64.22097583 191.02743722 63.24829789 188.60251895 62.27563477 186.17700195 C61.59318844 184.44430735 60.91214809 182.71105841 60.23242188 180.97729492 C58.78198241 177.28402126 57.32339774 173.59411307 55.85864258 169.90649414 C53.59984046 164.21543892 51.36800929 158.51408385 49.14282227 152.80981445 C46.12422876 145.07432058 43.10000771 137.34107882 40.06860352 129.6105957 C35.85607161 118.86606855 31.65709063 108.11629149 27.46313477 97.36450195 C26.80803337 95.68538049 26.15292272 94.00626264 25.49780273 92.32714844 C22.48757959 84.61136719 19.47818174 76.89526414 16.46911621 69.17903137 C15.77124146 67.38966647 15.07324392 65.60034945 14.37512207 63.81108093 C12.67174367 59.44533689 10.96976744 55.07905973 9.27124023 50.71142578 C6.26939304 42.99876036 3.24606485 35.297132 0.13891602 27.6262207 C-0.38632908 26.32139424 -0.91132125 25.01646594 -1.43603516 23.71142578 C-2.38562207 21.35685866 -3.34467532 19.0060756 -4.31542969 16.66015625 C-6.487349 11.2576604 -8.00755502 7.01807129 -7.41186523 1.17700195 C-4.81886793 -0.1194967 -2.90374968 0.02861061 0 0 Z " fill="#00334D" transform="translate(2188.411865234375,412.822998046875)"/>
</svg>
