<?xml version="1.0" encoding="UTF-8"?>
<svg version="1.1" xmlns="http://www.w3.org/2000/svg" width="1280" height="305">
<path d="M0 0 C1.1419986 -0.00101212 1.1419986 -0.00101212 2.30706787 -0.00204468 C33.63666261 0.04210011 68.91670632 9.42580913 92.625 31.25 C97.60216138 36.37177623 99.05764663 40.54995072 98.96484375 47.61328125 C98.3116649 52.68104819 95.83910852 56.26067407 92.0859375 59.6328125 C87.30259653 62.87460282 82.22933535 63.1088002 76.625 62.25 C71.93336551 60.75116025 68.22847784 57.97073916 64.3125 55.0625 C40.56009196 38.17431997 9.80980735 32.80524625 -18.73828125 36.8984375 C-41.72094593 40.99047292 -61.26489949 51.67357797 -78.375 67.25 C-79.02726562 67.81976563 -79.67953125 68.38953125 -80.3515625 68.9765625 C-98.51128708 85.75924635 -111.00883034 113.08654108 -112.59423828 137.64624023 C-112.71473266 141.37123075 -112.75520983 145.08557426 -112.75 148.8125 C-112.74945618 149.47163391 -112.74891235 150.13076782 -112.74835205 150.80987549 C-112.70681094 161.79101814 -111.75994788 171.8066372 -108.375 182.25 C-108.16069336 182.9315918 -107.94638672 183.61318359 -107.72558594 184.31542969 C-98.77040113 212.11951876 -79.40719473 235.67665269 -53.60498047 249.48706055 C-36.44162405 258.26767285 -19.09890845 262.65196029 0.1875 262.625 C0.84663391 262.62445618 1.50576782 262.62391235 2.18487549 262.62335205 C13.17622685 262.58177232 23.16923966 261.61495292 33.625 258.25 C34.29063965 258.04632813 34.9562793 257.84265625 35.64208984 257.6328125 C48.25727578 253.6922772 59.77485382 247.28084906 70.43359375 239.50390625 C75.4589227 235.95480612 79.65789177 235.70660355 85.625 236.25 C91.06689799 238.063966 94.4033325 241.63262638 97.625 246.25 C99.27687124 251.20561372 99.51451616 256.28679929 98 261.33203125 C89.49619783 277.64205808 62.34648998 287.21473724 45.98486328 292.52734375 C7.43861788 304.33128399 -34.46298719 300.57903015 -70.1875 281.9375 C-83.00089701 275.00474044 -93.92476994 266.33585663 -104.375 256.25 C-105.65310547 255.06664062 -105.65310547 255.06664062 -106.95703125 253.859375 C-134.4892069 227.67128982 -147.73461754 189.79744881 -149.50390625 152.53515625 C-150.32543499 113.48515679 -136.07983916 75.29145322 -109.078125 47.05078125 C-108.18609375 46.12652344 -107.2940625 45.20226563 -106.375 44.25 C-105.58609375 43.39792969 -104.7971875 42.54585937 -103.984375 41.66796875 C-77.10263747 13.4065394 -38.312404 0.03040912 0 0 Z " fill="#007BFE" transform="translate(152.375,2.75)"/>
<path d="M0 0 C0.91749023 0.46720459 0.91749023 0.46720459 1.85351562 0.94384766 C7.13675192 3.83431389 10.49298622 7.42347245 13.1875 12.8125 C14.32809786 18.74360888 13.81161495 23.98741511 11.1875 29.4375 C6.75314508 34.33862913 2.95513662 36.29466038 -3.5625 36.8125 C-10.12608402 36.63086623 -15.25857746 34.09943681 -20.96044922 31.08496094 C-33.56235257 24.4675368 -49.74975743 23.91774531 -63.328125 27.96875 C-80.26638345 34.44786525 -91.81924061 45.4353943 -99.5 61.75 C-105.18809829 74.59326265 -105.24444629 91.09265855 -100.44140625 104.1796875 C-93.236807 120.74353251 -82.4891497 131.59729483 -66.0234375 139.01953125 C-51.97470856 144.18621255 -35.97008661 143.85156976 -22.1875 138.0625 C-20.90552734 137.57136719 -20.90552734 137.57136719 -19.59765625 137.0703125 C-6.49990309 131.40082693 2.76267734 120.01669546 8.47265625 107.28125 C8.91359619 106.30091797 9.35453613 105.32058594 9.80883789 104.31054688 C10.14004639 103.56869141 10.47125488 102.82683594 10.8125 102.0625 C8.92144531 102.0939209 8.92144531 102.0939209 6.9921875 102.12597656 C2.28836549 102.19870087 -2.4154074 102.24441736 -7.11962891 102.28222656 C-9.15063857 102.30226836 -11.18159106 102.32950947 -13.21240234 102.36425781 C-16.14174556 102.41310414 -19.070322 102.43554343 -22 102.453125 C-22.89928223 102.47377014 -23.79856445 102.49441528 -24.72509766 102.51568604 C-30.70578109 102.51778639 -35.19981807 101.46388839 -40.1875 98.0625 C-45.26273386 92.72699774 -45.53737281 88.12275749 -45.46875 81.01171875 C-44.9745533 75.82951726 -42.46565165 73.30610701 -38.875 69.8125 C-31.53099275 65.03035575 -23.43979369 65.77089338 -14.96875 65.796875 C-13.58304781 65.79552545 -12.19734609 65.79358251 -10.81164551 65.79107666 C-7.91686465 65.78813901 -5.02220778 65.79237902 -2.12744141 65.80175781 C1.56771466 65.81315163 5.2625801 65.80658483 8.95772552 65.79461288 C11.81632647 65.7873574 14.67485944 65.78969907 17.53346252 65.79486847 C19.5535196 65.79683582 21.5735794 65.79080265 23.59362793 65.78460693 C39.43821758 65.86528098 39.43821758 65.86528098 45.8125 72.0625 C51.74758984 80.54119977 50.40171748 90.4946223 48.7355957 100.24072266 C44.04109353 125.10341039 30.75680968 147.08698769 10.08984375 162.03125 C-12.59324032 176.91396415 -38.2129454 182.55702783 -64.92382812 177.54101562 C-89.35414349 172.38224205 -111.20438126 157.55595948 -124.9375 136.625 C-126.0412111 134.78289063 -127.12488584 132.92861797 -128.1875 131.0625 C-128.71085937 130.17433594 -129.23421875 129.28617188 -129.7734375 128.37109375 C-141.28674221 107.36077373 -143.22853455 81.03673747 -137.1875 58.0625 C-130.14312767 34.09716697 -114.50891262 13.12376109 -92.4921875 0.99609375 C-63.51909686 -14.4250674 -29.23483069 -15.13068759 0 0 Z " fill="#002BB8" transform="translate(198.1875,67.9375)"/>
<path d="M0 0 C17.08174179 13.95339954 17.08174179 13.95339954 20 23 C20 27.00119067 19.45751833 28.51775095 16.6875 31.4375 C15.48175325 32.32441948 14.24760114 33.17299167 13 34 C12.0925 34.61617187 11.185 35.23234375 10.25 35.8671875 C4.83917346 39.30416661 0.70588565 41.74422638 -5.81176758 41.49194336 C-9.80655813 40.59386203 -11.87151281 37.89868836 -14.4375 34.875 C-15.55255864 33.66895595 -16.67497083 32.46966848 -17.8046875 31.27734375 C-18.34706055 30.70483887 -18.88943359 30.13233398 -19.44824219 29.54248047 C-30.12186706 18.93266896 -45.96241348 16.73537453 -60.2734375 16.75341797 C-76.4174346 16.96660751 -89.85252263 22.72685652 -101.30078125 34.0703125 C-113.51280446 47.32504102 -117.67836754 63.10855604 -117.24609375 80.75 C-116.60774657 94.92702397 -110.96084191 108.78043493 -101 119 C-85.75670049 132.13036691 -70.23346423 137.33906402 -50.27734375 136.20703125 C-34.04478656 134.73134423 -19.40652199 125.82916417 -8.96875 113.625 C-5.62253205 109.20118643 -3.48645396 104.96497318 -1.8046875 99.67578125 C-1.29010986 98.07536987 -1.29010986 98.07536987 -0.76513672 96.44262695 C-0.5126416 95.63656006 -0.26014648 94.83049316 0 94 C-0.91962021 93.99120064 -0.91962021 93.99120064 -1.8578186 93.98222351 C-8.24975204 93.91819543 -14.64118638 93.83375122 -21.03271484 93.73754883 C-23.41676241 93.70433354 -25.80088797 93.67629108 -28.18505859 93.65356445 C-31.61589739 93.61995682 -35.04602363 93.56763593 -38.4765625 93.51171875 C-39.53928375 93.50532883 -40.602005 93.4989389 -41.69692993 93.49235535 C-47.15744884 93.3843321 -51.35047222 93.20085765 -56 90 C-58.89591497 85.65612755 -58.40641314 81.73706174 -58.4375 76.625 C-58.48680664 75.20574219 -58.48680664 75.20574219 -58.53710938 73.7578125 C-58.54419922 72.84 -58.55128906 71.9221875 -58.55859375 70.9765625 C-58.57877563 69.72480225 -58.57877563 69.72480225 -58.59936523 68.44775391 C-57.69850116 64.76870575 -55.92283156 63.36003384 -53 61 C-50.1620708 60.50443694 -47.92355928 60.31376987 -45.09204102 60.35302734 C-44.31090942 60.34426575 -43.52977783 60.33550415 -42.72497559 60.32647705 C-40.15071553 60.30452571 -37.57818283 60.31902079 -35.00390625 60.3359375 C-33.20938285 60.33256777 -31.41486167 60.32771384 -29.62034607 60.32144165 C-25.86182903 60.31407585 -22.10390678 60.32476484 -18.34545898 60.34814453 C-13.53548785 60.37661191 -8.7269129 60.36023994 -3.91699314 60.33028221 C-0.21166025 60.31218355 3.49334361 60.31797931 7.1986866 60.33092117 C8.9716515 60.33424917 10.74464658 60.33018944 12.51757622 60.31852341 C15.0000666 60.30577409 17.48032193 60.32524656 19.96264648 60.35302734 C21.0546209 60.33784561 21.0546209 60.33784561 22.1686554 60.32235718 C27.84021909 60.43950885 30.1584481 62.12183747 34 66 C39.73080608 77.46161216 34.55430658 99.28933621 30.74609375 110.78515625 C22.17663994 134.45861056 5.68785248 151.31673413 -16.84228516 162.03369141 C-41.61013802 173.12569883 -69.61445505 173.05386103 -94.96313477 163.97973633 C-107.09722492 159.34829776 -116.69170538 151.88444933 -126 143 C-126.60199219 142.47277344 -127.20398438 141.94554687 -127.82421875 141.40234375 C-143.43338405 127.17580848 -151.85996894 104.61977231 -153.1262207 83.93847656 C-154.11559607 55.88418836 -146.42445996 31.66913615 -127.65625 10.3359375 C-94.91716368 -23.99758484 -37.77212076 -28.64385824 0 0 Z " fill="#002BB7" transform="translate(586,76)"/>
<path d="M0 0 C4.81077056 3.80792111 8.5032808 8.18657784 11.9375 13.25 C11.95167969 12.22519531 11.96585938 11.20039062 11.98046875 10.14453125 C12.02739016 8.78381029 12.07563744 7.42313459 12.125 6.0625 C12.13370117 5.05219727 12.13370117 5.05219727 12.14257812 4.02148438 C12.29456196 0.55963027 12.9163132 -1.71392518 14.671875 -4.703125 C19.8651499 -7.95823989 25.00261506 -7.43369238 31 -7.3125 C32.18400391 -7.32345703 33.36800781 -7.33441406 34.58789062 -7.34570312 C43.27062506 -7.27191218 43.27062506 -7.27191218 46.07792568 -5.07485199 C48.39944225 -2.17247677 48.44198478 -0.70385585 48.4521637 2.9810791 C48.46488815 4.15036453 48.47761261 5.31964996 48.49072266 6.52436829 C48.48419678 7.80345566 48.4776709 9.08254303 48.47094727 10.40039062 C48.47800618 11.76394077 48.48675108 13.12748308 48.49705505 14.49101257 C48.51956118 18.19146784 48.51660691 21.89149567 48.50773358 25.59199333 C48.50262478 28.68110959 48.50991525 31.77014543 48.51720566 34.85925341 C48.53420814 42.14598648 48.53063496 49.43251015 48.51391602 56.71923828 C48.49698787 64.2379975 48.51283747 71.75617645 48.5451389 79.2748723 C48.57182183 85.73020746 48.57911456 92.18536183 48.57062382 98.64074659 C48.56569149 102.49633126 48.56792642 106.35156663 48.58841133 110.20710754 C48.60674896 113.83201276 48.60083479 117.45608205 48.57621193 121.08094215 C48.56880615 123.0458466 48.58607376 125.0107954 48.60403442 126.97563171 C48.59138046 128.14491714 48.5787265 129.31420258 48.56568909 130.5189209 C48.56510278 131.53507225 48.56451647 132.5512236 48.56391239 133.59816742 C47.70378453 137.23940299 46.03420563 138.28109912 42.9375 140.25 C38.79901325 141.04320996 34.64399149 140.85336306 30.4375 140.8125 C29.30957031 140.83634766 28.18164062 140.86019531 27.01953125 140.88476562 C18.87361786 140.87030542 18.87361786 140.87030542 14.70703125 138.109375 C12.67954861 134.83317789 12.25128465 132.76813445 12.125 128.9375 C12.05345703 127.33455078 12.05345703 127.33455078 11.98046875 125.69921875 C11.96628906 124.89097656 11.95210937 124.08273438 11.9375 123.25 C10.99003906 124.10271484 10.99003906 124.10271484 10.0234375 124.97265625 C-4.54163942 137.54395463 -20.62237752 143.65463683 -39.88671875 142.45703125 C-57.49824963 140.78124824 -73.70971487 132.1488247 -85.1875 118.6875 C-100.03329819 99.06339834 -104.22583395 76.28503236 -101.84423828 52.02685547 C-99.09954551 32.8911855 -89.56451492 16.77909003 -75.0625 4.25 C-53.95725134 -11.29083833 -22.30207599 -15.10980758 0 0 Z M-56.75 35.875 C-66.26842439 47.157709 -67.12105508 61.21188671 -66.0625 75.25 C-63.90930832 87.29556944 -57.71046889 97.66709295 -48.0625 105.25 C-37.93079528 110.98465871 -27.35760154 113.15373208 -15.9375 110.125 C-5.28237885 106.5113773 3.09283817 99.21574554 8.25 89.3125 C14.05108066 77.50372484 14.90730066 63.95421567 11.3125 51.3125 C7.54456809 40.75965575 2.19899579 32.12749775 -7.87890625 26.74609375 C-25.86408848 18.34023628 -43.01007241 21.63275248 -56.75 35.875 Z " fill="#002BB8" transform="translate(930.0625,104.75)"/>
<path d="M0 0 C17.5456371 15.32877694 17.5456371 15.32877694 18.91015625 23.65234375 C18.82458952 26.25737517 18.61853574 27.44740847 16.91796875 29.44921875 C14.78924169 31.09213673 12.59481921 32.46183931 10.28515625 33.83984375 C9.3209375 34.47535156 8.35671875 35.11085937 7.36328125 35.765625 C-1.86731533 41.61088857 -1.86731533 41.61088857 -7.75585938 41.35644531 C-11.5983548 40.34314517 -13.58674805 37.28250892 -15.96484375 34.27734375 C-23.57591101 25.39887997 -32.266127 19.69652931 -43.71484375 16.83984375 C-44.42640625 16.65679687 -45.13796875 16.47375 -45.87109375 16.28515625 C-64.20460858 13.41424871 -81.82398841 16.98909493 -97.1328125 27.5 C-109.37204559 37.51391798 -115.59076158 52.51377393 -117.71484375 67.83984375 C-119.27685827 85.70776593 -114.57632155 102.62734589 -103.0078125 116.453125 C-92.79834459 127.08001579 -79.19252153 133.54105894 -64.48046875 134.17578125 C-53.98180016 134.34731888 -44.47185955 134.18381333 -34.71484375 129.83984375 C-33.75449219 129.41574219 -32.79414062 128.99164063 -31.8046875 128.5546875 C-23.58678554 124.49660386 -17.45810583 118.64998941 -12.08984375 111.27734375 C-9.71484375 108.83984375 -9.71484375 108.83984375 -6.64453125 108.38671875 C-1.45377335 108.98525545 2.0840629 111.02911743 6.53515625 113.65234375 C7.33695313 114.10416016 8.13875 114.55597656 8.96484375 115.02148438 C15.96784709 119.03240184 15.96784709 119.03240184 18.28515625 121.83984375 C19.12274547 126.18007879 19.13797472 128.42310196 16.84375 132.234375 C14.77039015 134.89413965 12.5799873 137.36877567 10.28515625 139.83984375 C9.5375 140.67902344 8.78984375 141.51820313 8.01953125 142.3828125 C-5.70301275 157.03685369 -26.56283243 167.84502709 -46.76660156 169.0168457 C-77.82060286 169.57631702 -103.64927309 164.61434574 -127.08691406 142.4765625 C-143.87217249 125.6006818 -152.55984661 103.44509789 -153.71484375 79.83984375 C-153.75609375 79.07929688 -153.79734375 78.31875 -153.83984375 77.53515625 C-154.48966056 53.41070726 -147.09524627 29.81833432 -130.71484375 11.83984375 C-129.83054687 10.86273438 -128.94625 9.885625 -128.03515625 8.87890625 C-95.51283119 -25.8895571 -37.18584936 -29.58816503 0 0 Z " fill="#002BB8" transform="translate(793.71484375,77.16015625)"/>
<path d="M0 0 C1.24974609 -0.020625 2.49949219 -0.04125 3.78710938 -0.0625 C4.98787109 -0.06765625 6.18863281 -0.0728125 7.42578125 -0.078125 C8.52962158 -0.0874707 9.63346191 -0.09681641 10.77075195 -0.10644531 C14.13428799 0.30460036 15.29691972 0.88530301 17.6875 3.25 C18.20648193 5.81266785 18.20648193 5.81266785 18.23339844 8.91479492 C18.25311707 10.07577194 18.27283569 11.23674896 18.29315186 12.4329071 C18.29438049 13.68610245 18.29560913 14.93929779 18.296875 16.23046875 C18.31341125 17.51359451 18.32994751 18.79672028 18.34698486 20.11872864 C18.39068228 23.52669142 18.41066222 26.93439671 18.42572021 30.34259033 C18.44528313 33.82164756 18.48725386 37.30042635 18.52734375 40.77929688 C18.60267101 47.60275968 18.652947 54.42621229 18.6875 61.25 C19.54617676 60.70077881 20.40485352 60.15155762 21.28955078 59.58569336 C22.44541571 58.85755713 23.60151562 58.12979383 24.7578125 57.40234375 C25.60146362 56.86063538 25.60146362 56.86063538 26.4621582 56.3079834 C41.44039237 46.93723233 60.09627279 46.41090646 76.94140625 50.14453125 C92.53013254 54.74474975 103.27069037 63.70322061 111.12890625 77.84375 C118.01576794 91.82305135 118.16284553 106.1655945 118.15625 121.3828125 C118.16336491 123.39346525 118.17106582 125.40411601 118.17932129 127.4147644 C118.19267697 131.59850751 118.1943715 135.78206203 118.18847656 139.96582031 C118.18253775 145.32825692 118.21338489 150.68980146 118.25359344 156.0520649 C118.27939933 160.19044883 118.2823553 164.32861441 118.27870178 168.46706772 C118.28039451 170.44545643 118.29005172 172.42385505 118.30784607 174.40216446 C118.3299335 177.15691424 118.32039247 179.90980848 118.30273438 182.66455078 C118.31599762 183.47909225 118.32926086 184.29363373 118.34292603 185.13285828 C118.2841965 189.06755204 118.06799122 190.84751067 115.31825256 193.75622559 C112.30525326 195.46704451 110.5349807 195.7406194 107.08984375 195.7109375 C106.04119141 195.70707031 104.99253906 195.70320312 103.91210938 195.69921875 C102.82736328 195.67472656 101.74261719 195.65023437 100.625 195.625 C98.99208008 195.62306641 98.99208008 195.62306641 97.32617188 195.62109375 C87.81629583 195.51575358 87.81629583 195.51575358 84.6875 193.25 C82.45182884 189.00326797 82.4059685 184.94327439 82.43212891 180.25366211 C82.42850845 179.46266113 82.424888 178.67166016 82.42115784 177.85668945 C82.41428002 176.14342843 82.41175537 174.43014556 82.41310501 172.71687126 C82.41407393 169.99522629 82.40108209 167.27397234 82.38412476 164.55238342 C82.33798208 156.81563391 82.31327992 149.07892345 82.30664062 141.34204102 C82.30159411 136.60282635 82.27718128 131.86401751 82.24131393 127.12494087 C82.23158354 125.32905082 82.22914663 123.53310444 82.23448563 121.73719597 C82.27021087 109.12151185 81.80800056 97.15772922 73.390625 86.93359375 C67.14847058 80.76302367 59.6620692 77.97369422 50.9375 77.875 C42.24090707 78.02162327 34.71500717 80.24355706 28.28515625 86.30859375 C18.22981429 98.52743226 18.40063672 113.93338959 18.44367027 128.94751167 C18.44934819 131.49958427 18.43997368 134.05121665 18.4264679 136.60325623 C18.38965542 143.84791467 18.37087298 151.09240835 18.38208008 158.3371582 C18.3879248 162.79386007 18.36972452 167.24992368 18.33619118 171.70649529 C18.32824438 173.39736078 18.32950446 175.08829595 18.34021568 176.77914619 C18.35451809 179.13415781 18.33830937 181.48714201 18.31518555 183.84204102 C18.32695328 184.53659393 18.33872101 185.23114685 18.35084534 185.94674683 C18.27996815 189.6230044 17.92302522 191.00825312 15.31747437 193.68263245 C12.29519231 195.48380089 10.58388825 195.74104076 7.08984375 195.7109375 C6.04119141 195.70707031 4.99253906 195.70320312 3.91210938 195.69921875 C2.82736328 195.67472656 1.74261719 195.65023437 0.625 195.625 C-1.00791992 195.62306641 -1.00791992 195.62306641 -2.67382812 195.62109375 C-12.18370417 195.51575358 -12.18370417 195.51575358 -15.3125 193.25 C-17.44289893 189.13887183 -17.5980192 185.30607218 -17.57319641 180.77294922 C-17.57702196 180.02899839 -17.58084751 179.28504757 -17.58478898 178.51855278 C-17.59509188 176.03052541 -17.59113204 173.54272998 -17.5871582 171.0546875 C-17.59150613 169.26897976 -17.59668955 167.4832739 -17.60264587 165.6975708 C-17.61603714 160.85055728 -17.61661449 156.00362173 -17.61408257 151.15659332 C-17.61301314 147.11069294 -17.61789542 143.06480836 -17.622688 139.01891136 C-17.63378321 129.47548619 -17.63422023 119.93210038 -17.62817383 110.38867188 C-17.62213041 100.54054985 -17.63445437 90.69257056 -17.6557439 80.84447289 C-17.67334922 72.3900022 -17.67936302 63.93557699 -17.67610615 55.48108864 C-17.67429175 50.43118025 -17.6769453 45.38137374 -17.69082069 40.33148193 C-17.70337733 35.58395721 -17.70147548 30.83665544 -17.68840981 26.08913422 C-17.68603991 24.34644242 -17.68879348 22.60373503 -17.69703293 20.8610611 C-17.70746713 18.48279765 -17.69942705 16.10528695 -17.6867218 13.72705078 C-17.69409609 13.036873 -17.70147037 12.34669521 -17.70906812 11.63560295 C-17.56576149 -1.10809606 -10.28262963 0.04203426 0 0 Z " fill="#002BB4" transform="translate(1160.3125,49.75)"/>
<path d="M0 0 C9.54126993 8.15190225 14.74636428 16.65411758 17.37890625 28.99609375 C17.68716714 34.45296742 17.68716714 34.45296742 16.06640625 37.30859375 C11.8892281 41.4857719 4.99892537 40.26016526 -0.49609375 40.30859375 C-1.58535156 40.33759766 -2.67460938 40.36660156 -3.796875 40.39648438 C-11.7849533 40.46003702 -11.7849533 40.46003702 -15.75390625 38.2578125 C-17.60908524 36.01063962 -18.64805905 34.22807579 -19.62109375 31.49609375 C-21.63153416 26.64878684 -23.71731852 24.34532264 -28.5546875 22.09765625 C-36.87929694 18.86278128 -45.40047163 18.92165052 -53.7421875 22.0703125 C-57.03413143 23.69233061 -58.99816904 25.75024432 -60.62109375 28.99609375 C-61.15193209 32.88890827 -60.82791125 34.64664349 -58.80859375 38.05859375 C-52.11946234 45.24955556 -40.46479754 47.40143926 -31.37109375 49.93359375 C4.09770914 60.1758575 4.09770914 60.1758575 14.37890625 74.99609375 C19.74910917 84.9178711 20.88608259 95.24230704 18.73046875 106.33203125 C15.45454452 117.22377932 8.45235345 125.90832256 -1.37890625 131.58984375 C-18.87745458 140.71952114 -38.69869712 142.57758519 -57.91796875 138.16796875 C-68.23955754 134.90164318 -78.13568999 129.93835314 -85.62109375 121.99609375 C-86.23210938 121.3928125 -86.843125 120.78953125 -87.47265625 120.16796875 C-93.95568359 113.38148055 -97.68083342 105.34646269 -98.96875 96.06640625 C-98.42678464 92.8389721 -96.89384299 91.30059378 -94.62109375 88.99609375 C-91.66015625 88.36499023 -91.66015625 88.36499023 -88.24609375 88.3671875 C-86.39757812 88.36428711 -86.39757812 88.36428711 -84.51171875 88.36132812 C-83.2278125 88.38517578 -81.94390625 88.40902344 -80.62109375 88.43359375 C-79.3371875 88.42263672 -78.05328125 88.41167969 -76.73046875 88.40039062 C-67.2580232 88.47470374 -67.2580232 88.47470374 -64.28198242 90.91088867 C-62.69596006 92.90210094 -61.82960545 94.51017404 -60.93359375 96.87109375 C-58.21496732 102.58553988 -53.31781326 105.5534715 -47.5390625 107.80859375 C-38.69582497 110.32028252 -29.36855627 109.45774098 -21.24609375 105.24609375 C-18.18578193 102.62296934 -16.8298887 100.84912767 -15.62109375 96.99609375 C-15.93209525 93.45067668 -16.42523892 91.1752467 -19.01953125 88.6171875 C-26.92571523 83.11047857 -37.18476947 80.92919061 -46.3671875 78.40625 C-64.91032983 73.27735856 -83.0915295 68.11892912 -93.39453125 50.62109375 C-97.89655622 40.98618681 -98.38140639 29.09560979 -94.99609375 18.99609375 C-89.73942389 6.74274136 -80.13046144 -1.62560494 -67.96875 -6.75 C-46.72259146 -14.70801271 -18.58146435 -14.20609718 0 0 Z " fill="#002BB7" transform="translate(1099.62109375,107.00390625)"/>
<path d="M0 0 C17.19724934 11.99808093 22.94636748 44.51612378 26.6875 63.875 C27.49953752 68.53068177 28.15953537 73.17889359 28.6875 77.875 C28.79964844 78.87144531 28.91179687 79.86789063 29.02734375 80.89453125 C32.42218688 117.12169292 26.41945331 154.15528861 11.125 187.1875 C10.76116211 187.98236816 10.39732422 188.77723633 10.02246094 189.59619141 C7.48390669 194.88162071 4.73200403 198.86160054 -0.26171875 202.1640625 C-5.29243123 203.90804283 -11.43600414 203.72824122 -16.51171875 202.22265625 C-21.10394778 199.90163811 -23.54669748 196.55199045 -25.3125 191.875 C-27.44072705 183.07832818 -24.00739579 176.25492037 -20.45776367 168.24389648 C-3.20876438 129.25100432 -1.34849561 83.00532201 -16.3125 42.875 C-17.9569732 38.8790375 -19.7080931 34.93511282 -21.54589844 31.02441406 C-24.8438553 23.99243357 -27.48713843 17.61230049 -25.3125 9.875 C-19.85051668 -0.26868331 -10.84829551 -3.68432678 0 0 Z " fill="#6EBAF7" transform="translate(328.3125,51.125)"/>
<path d="M0 0 C7.0304529 7.98350055 10.05987349 18.45445382 12.75 28.5625 C12.94843506 29.3045166 13.14687012 30.0465332 13.35131836 30.81103516 C16.44866639 43.05463853 17.37605831 55.1111395 17.3125 67.6875 C17.31067719 68.43667694 17.30885437 69.18585388 17.30697632 69.95773315 C17.2609369 81.20169883 16.80645964 92.06729262 14 103 C13.73461426 104.07024414 13.73461426 104.07024414 13.46386719 105.16210938 C10.55630729 116.62161144 7.02688543 129.04156113 -1 138 C-5.87964515 140.72134057 -10.45323787 141.95087351 -16 141 C-21.26125404 139.21749863 -25.0287217 136.79975726 -28 132 C-30.43023045 126.90808857 -30.30995169 122.38367429 -29 117 C-28.09248934 114.5455327 -27.15698666 112.11688441 -26.1875 109.6875 C-15.2310917 81.65179018 -15.85893856 50.13094442 -27.80102539 22.52758789 C-30.29012015 16.49567488 -30.60224275 11.2086272 -28.25048828 5.03125 C-25.63537477 -0.1091293 -22.02854888 -2.96391749 -16.625 -4.8125 C-9.80305372 -5.29978188 -5.33266823 -4.36309219 0 0 Z " fill="#6EBAF7" transform="translate(285,84)"/>
</svg>
