<?xml version="1.0" encoding="UTF-8"?>
<svg version="1.1" xmlns="http://www.w3.org/2000/svg" width="320" height="320">
<path d="M0 0 C0.79635864 -0.00073517 1.59271729 -0.00147034 2.41320801 -0.00222778 C21.65709086 0.04438687 38.43997449 3.63695799 55.625 12.4375 C56.25019531 12.7562207 56.87539062 13.07494141 57.51953125 13.40332031 C77.57425534 23.81475316 77.57425534 23.81475316 80.625 33.4375 C81.10196886 38.68415744 80.48733294 41.99594889 77.625 46.4375 C72.98289877 50.62671331 70.11029464 51.81402653 63.97265625 51.70703125 C60.2587557 51.28064333 57.63517381 49.49406913 54.625 47.4375 C32.24134951 32.7443216 7.42749452 26.27248446 -19.37084961 31.51806641 C-33.89063247 34.90401459 -46.60512762 41.39002192 -58.375 50.4375 C-59.09945312 50.97761719 -59.82390625 51.51773438 -60.5703125 52.07421875 C-78.02773585 66.10376747 -88.30405561 88.67864724 -91.375 110.4375 C-93.52359409 136.9329092 -87.17322264 161.62959618 -69.89355469 182.20117188 C-54.5612106 199.48561863 -32.46578388 212.15573965 -9.03295898 213.57983398 C15.39448722 214.46683263 36.23255304 209.9287719 56.05078125 195.2578125 C60.64403982 192.0097723 65.16604975 191.75629766 70.625 192.4375 C75.74262818 195.09108498 78.80205942 197.96867826 80.625 203.4375 C80.99135598 207.90704291 81.09683736 210.43228128 79.1875 214.5 C64.64265549 231.17335834 39.02539213 240.37641708 17.625 243.4375 C15.07990546 243.56234395 12.56125033 243.64730754 10.015625 243.67578125 C9.29560806 243.6855751 8.57559113 243.69536896 7.83375549 243.70545959 C-21.60220104 244.02370007 -21.60220104 244.02370007 -35.375 239.4375 C-36.0546582 239.21787598 -36.73431641 238.99825195 -37.43457031 238.77197266 C-54.42589534 233.20149881 -70.86982061 224.38712841 -83.375 211.4375 C-84.21417969 210.64472656 -85.05335937 209.85195312 -85.91796875 209.03515625 C-106.84145424 188.97704387 -121.13798576 160.33430566 -121.80859375 131.046875 C-121.84599298 128.09306152 -121.83727339 125.14138866 -121.8125 122.1875 C-121.80945862 121.4174765 -121.80641724 120.647453 -121.80328369 119.85409546 C-121.73568482 108.2795158 -121.04077589 97.48050712 -117.375 86.4375 C-117.16601074 85.77379395 -116.95702148 85.11008789 -116.74169922 84.42626953 C-108.02137188 57.03725639 -89.0907278 32.24909139 -64.375 17.4375 C-63.25222656 16.75429688 -62.12945312 16.07109375 -60.97265625 15.3671875 C-42.06526155 4.35281792 -21.67156253 -0.00869285 0 0 Z " fill="#007CFE" transform="translate(137.375,37.5625)"/>
<path d="M0 0 C0.9384375 0.31195313 1.876875 0.62390625 2.84375 0.9453125 C9.9513377 3.49291171 15.48313628 7.16852832 20.5 12.8125 C22.75739416 17.60946259 23.01752635 21.92935835 21.33984375 26.9921875 C19.39785384 30.90979485 16.89934467 33.16598174 13.171875 35.37109375 C6.4167528 37.32716331 1.49177009 35.77185848 -4.4375 32.625 C-17.78731022 26.02566606 -30.27185457 25.10539374 -44.64453125 29.68359375 C-56.68362008 34.40672872 -65.58723289 42.67066983 -71.4375 54.1875 C-77.1848103 67.81134697 -77.04203006 81.45546079 -71.875 95.1875 C-66.20708784 107.71309014 -57.14387939 115.69403804 -44.5625 120.9375 C-32.14450006 125.02717937 -17.8272553 124.77689638 -6 119 C4.19827387 113.68035985 11.18964656 107.07236343 16.23046875 96.69921875 C16.75406982 95.62889404 17.2776709 94.55856934 17.81713867 93.45581055 C18.20748291 92.64539307 18.59782715 91.83497559 19 91 C18.0494574 91.01332367 18.0494574 91.01332367 17.07971191 91.0269165 C10.46078548 91.1156806 3.84202923 91.17585479 -2.77734375 91.21972656 C-5.24486158 91.23979295 -7.71233215 91.26705244 -10.1796875 91.30175781 C-13.73449393 91.35049306 -17.28866944 91.37301939 -20.84375 91.390625 C-22.48796936 91.42159271 -22.48796936 91.42159271 -24.16540527 91.45318604 C-30.63956025 91.45506594 -35.63049685 90.80927237 -41 87 C-44.54711702 83.36420505 -45.28578227 80.43370215 -45.5 75.5 C-45.29279901 70.57396351 -44.48814876 67.66702818 -41 64 C-35.95132453 60.62823599 -32.73582688 59.49788913 -26.53930664 59.48242188 C-25.82937057 59.4754126 -25.11943451 59.46840332 -24.38798523 59.46118164 C-22.06163386 59.4437028 -19.7365181 59.45518829 -17.41015625 59.46875 C-15.78022531 59.46605185 -14.15029595 59.46216674 -12.52037048 59.45715332 C-9.11181241 59.45127174 -5.70367499 59.4597764 -2.29516602 59.47851562 C2.05704019 59.50128661 6.40825855 59.48818596 10.76042843 59.46422577 C14.12438795 59.44971568 17.48811642 59.4543978 20.85208321 59.46473694 C22.45592938 59.46739081 24.05979705 59.46418197 25.66361809 59.45481873 C41.28465945 59.38363154 41.28465945 59.38363154 48 64 C52.92680586 69.41948644 52.68438382 75.60966168 52.375 82.68359375 C51.13120235 99.96849424 43.69316563 116.28423813 32 129 C30.95199219 130.16789062 30.95199219 130.16789062 29.8828125 131.359375 C24.53698057 137.02862025 18.75882503 141.1584456 12 145 C11.19820313 145.46277344 10.39640625 145.92554688 9.5703125 146.40234375 C-8.92228365 156.37621938 -30.99037499 157.6298267 -51 152 C-73.4341473 144.46676235 -89.78030429 129.78819194 -100.3125 108.75 C-108.72842461 89.19879909 -110.10545428 66.94584987 -102.48828125 46.8671875 C-99.27146603 38.90443389 -95.43943542 31.69118834 -90 25 C-89.32195312 24.15953125 -88.64390625 23.3190625 -87.9453125 22.453125 C-66.63840861 -2.56921764 -30.74222506 -11.25662281 0 0 Z " fill="#002CB8" transform="translate(165,84)"/>
<path d="M0 0 C6.64669892 2.7191041 10.23918894 8.84481223 12.97998047 15.16577148 C13.29596191 15.93606689 13.61194336 16.7063623 13.9375 17.5 C14.27668457 18.31734619 14.61586914 19.13469238 14.96533203 19.97680664 C18.86594147 29.70265628 21.70997834 39.78103581 24 50 C24.29366455 51.283302 24.29366455 51.283302 24.59326172 52.5925293 C26.40201445 61.709708 26.37221498 70.86459249 26.37060547 80.12329102 C26.37494331 82.90119442 26.41126706 85.67745792 26.44921875 88.45507812 C26.55389808 104.97949651 24.27432172 121.17485225 18.75 136.8125 C18.45552979 137.66577881 18.16105957 138.51905762 17.85766602 139.39819336 C15.83307108 145.08477503 13.55054442 150.62118213 10.9375 156.0625 C10.63360352 156.71130127 10.32970703 157.36010254 10.01660156 158.02856445 C7.77607437 162.42639589 5.36492236 164.73486984 1 167 C-3.5465324 167.99596869 -8.05074862 168.07520983 -12.1953125 165.7890625 C-16.5987517 162.15944943 -18.70777204 158.94818642 -19.5625 153.25 C-19.45479671 147.76610766 -17.10285364 143.23310244 -14.85083008 138.35400391 C0.63171069 104.65099002 -0.55135725 66.61096496 -13.12451172 32.25244141 C-14.25438425 29.34552452 -15.56353841 26.54881065 -16.9375 23.75 C-19.16253162 19.10101008 -20.06764195 15.10871661 -19 10 C-14.97225788 1.78960261 -8.84014288 -1.32848158 0 0 Z " fill="#50C0FE" transform="translate(278,76)"/>
<path d="M0 0 C12.71859201 11.56235637 15.93495816 34.31890376 16.87597656 50.69189453 C17.59776498 71.04358695 15.21126132 95.00649588 3.75 112.5 C-1.02583875 117.05370672 -4.26984448 117.85556096 -10.70703125 117.78125 C-14.44180418 117.36818756 -16.48941828 115.99125668 -19.25 113.5 C-22.26194076 109.65717903 -22.98326142 106.34416307 -23.25 101.5 C-22.43400264 97.97592738 -21.20051158 94.63594594 -19.9375 91.25 C-15.85600295 80.10972149 -13.85556706 69.76213224 -13.875 57.875 C-13.87661133 56.8339209 -13.87822266 55.7928418 -13.87988281 54.72021484 C-14.05492514 43.56727271 -16.01594917 33.37425903 -20.5 23.125 C-22.72811324 17.94375254 -23.1080448 13.06853565 -22.25 7.5 C-20.47652978 3.68021798 -18.99050477 2.01663123 -15.5625 -0.375 C-9.98101859 -2.27059746 -5.40088721 -2.49271717 0 0 Z " fill="#50C0FE" transform="translate(243.25,101.5)"/>
</svg>
