<svg width="44" height="214" viewBox="0 0 44 214" fill="none" xmlns="http://www.w3.org/2000/svg">
<path d="M23.7464 201.769C23.9468 200.916 24.3604 200.256 24.9872 199.789C25.6008 199.31 26.3142 199.07 27.1276 199.07C28.3676 199.071 29.3274 199.485 30.007 200.312C30.6733 201.125 31.0061 202.299 31.0055 203.832L31.0022 211.252L16.8422 211.246L16.8454 204.026C16.846 202.586 17.1598 201.453 17.7869 200.626C18.4139 199.8 19.3274 199.387 20.5274 199.387C21.3541 199.388 22.054 199.608 22.6271 200.048C23.1869 200.475 23.56 201.049 23.7464 201.769ZM22.3642 206.808L22.3649 205.088C22.3651 204.688 22.2852 204.395 22.1253 204.208C21.9654 204.008 21.7188 203.908 21.3854 203.908C21.0388 203.908 20.7854 204.008 20.6253 204.207C20.4519 204.394 20.3651 204.687 20.3649 205.087L20.3642 206.807L22.3642 206.808ZM27.445 204.79C27.4452 204.39 27.372 204.097 27.2254 203.91C27.0655 203.71 26.8122 203.61 26.4656 203.61C25.7856 203.61 25.4454 204.003 25.445 204.79L25.4442 206.81L27.4442 206.81L27.445 204.79ZM28.8727 187.499L28.8706 192.219L31.0103 192.92L31.0082 197.58L16.8505 192.394L16.8528 187.274L31.015 182.12L31.013 186.8L28.8727 187.499ZM25.5322 188.578L21.5916 189.856L25.5311 191.138L25.5322 188.578ZM23.9157 180.508C22.5157 180.508 21.2692 180.227 20.1761 179.667C19.083 179.093 18.2367 178.279 17.6372 177.226C17.0243 176.172 16.7182 174.932 16.7188 173.505C16.7194 172.278 16.9532 171.185 17.4203 170.225C17.874 169.252 18.5211 168.466 19.3613 167.866C20.2016 167.253 21.1818 166.847 22.3019 166.648L22.2998 171.328C21.833 171.541 21.4729 171.847 21.2194 172.247C20.9526 172.634 20.819 173.08 20.8188 173.587C20.8185 174.334 21.0982 174.927 21.658 175.367C22.2178 175.794 22.9711 176.008 23.9177 176.008C24.8644 176.009 25.6178 175.796 26.178 175.369C26.7382 174.93 27.0185 174.336 27.0188 173.59C27.019 173.083 26.8926 172.636 26.6394 172.249C26.3729 171.849 26.0064 171.543 25.5398 171.329L25.5419 166.649C26.6618 166.849 27.6416 167.257 28.4813 167.87C29.3211 168.471 29.974 169.258 30.4403 170.231C30.8932 171.191 31.1194 172.285 31.1188 173.511C31.1182 174.938 30.8177 176.178 30.2172 177.231C29.6034 178.284 28.7497 179.097 27.6561 179.67C26.5625 180.229 25.3157 180.509 23.9157 180.508ZM31.0268 155.493L24.885 159.61L31.025 159.613L31.023 164.053L16.863 164.047L16.865 159.607L22.825 159.609L16.8667 155.547L16.869 150.527L23.6468 155.41L31.0291 150.213L31.0268 155.493ZM16.8769 132.43L20.3969 132.432L20.3953 136.192L31.0353 136.197L31.0333 140.637L20.3933 140.632L20.3917 144.352L16.8717 144.35L16.8769 132.43ZM31.181 123.333C31.1804 124.666 30.8665 125.892 30.2393 127.012C29.6122 128.119 28.7451 128.998 27.6382 129.651C26.5312 130.304 25.2844 130.63 23.8977 130.629C22.5111 130.629 21.2645 130.302 20.1582 129.648C19.0518 128.994 18.1922 128.114 17.5793 127.007C16.9532 125.886 16.6404 124.66 16.641 123.326C16.6415 121.993 16.9554 120.773 17.5826 119.667C18.1964 118.56 19.0568 117.687 20.1637 117.048C21.2707 116.395 22.5175 116.069 23.9042 116.069C25.2908 116.07 26.5373 116.397 27.6437 117.051C28.7501 117.692 29.6164 118.572 30.2426 119.692C30.8687 120.799 31.1815 122.013 31.181 123.333ZM27.041 123.331C27.0413 122.451 26.7616 121.771 26.2018 121.29C25.6287 120.81 24.8622 120.57 23.9022 120.569C22.9288 120.569 22.1621 120.809 21.6019 121.288C21.0283 121.768 20.7413 122.448 20.741 123.328C20.7406 124.221 21.0269 124.908 21.6 125.388C22.1598 125.869 22.9264 126.109 23.8997 126.109C24.8597 126.11 25.6265 125.87 26.2 125.39C26.7603 124.911 27.0406 124.224 27.041 123.331ZM16.8921 97.9461L20.4121 97.9477L20.4105 101.708L31.0505 101.712L31.0485 106.152L20.4085 106.148L20.4069 109.868L16.8869 109.866L16.8921 97.9461ZM31.1962 88.8482C31.1956 90.1815 30.8817 91.4081 30.2545 92.5278C29.6274 93.6342 28.7603 94.5138 27.6534 95.1666C26.5464 95.8195 25.2996 96.1456 23.9129 96.145C22.5263 96.1444 21.2797 95.8172 20.1734 95.1633C19.067 94.5095 18.2074 93.6291 17.5945 92.5222C16.9684 91.4019 16.6556 90.1751 16.6562 88.8418C16.6567 87.5085 16.9706 86.2886 17.5978 85.1822C18.2116 84.0758 19.072 83.2029 20.1789 82.5634C21.2859 81.9105 22.5327 81.5844 23.9194 81.585C25.306 81.5856 26.5525 81.9128 27.6589 82.5666C28.7653 83.2071 29.6316 84.0875 30.2578 85.2078C30.8839 86.3147 31.1967 87.5282 31.1962 88.8482ZM27.0562 88.8464C27.0565 87.9664 26.7768 87.2863 26.2171 86.806C25.6439 86.3258 24.8774 86.0854 23.9174 86.085C22.944 86.0846 22.1773 86.3242 21.6171 86.804C21.0435 87.2837 20.7565 87.9636 20.7562 88.8436C20.7558 89.7369 21.0421 90.4237 21.6152 90.904C22.175 91.3842 22.9416 91.6246 23.9149 91.625C24.8749 91.6254 25.6417 91.3858 26.2152 90.906C26.7755 90.4263 27.0558 89.7397 27.0562 88.8464ZM21.7656 67.4023C22.6589 67.4027 23.4722 67.6097 24.2053 68.0234C24.9251 68.4371 25.4982 69.0506 25.9245 69.8642C26.3508 70.6644 26.5637 71.6378 26.5632 72.7844L26.5625 74.5444L31.0625 74.5464L31.0605 78.9864L16.9005 78.9802L16.9032 72.7802C16.904 71.0469 17.3446 69.7204 18.225 68.8008C19.1054 67.8678 20.2856 67.4017 21.7656 67.4023ZM23.063 73.2829C23.0634 72.3629 22.6303 71.9027 21.7636 71.9023C20.897 71.9019 20.4634 72.3618 20.463 73.2818L20.4625 74.5418L23.0625 74.5429L23.063 73.2829Z" fill="white"/>
<path d="M22 54.8001L13.5667 63.2334L11 60.6667L22 49.6667L33 60.6667L30.4333 63.2334L22 54.8001Z" fill="#FEF7FF"/>
</svg>
